<?xml version="1.0" encoding="UTF-8" standalone="no"?>
<!-- Created with Inkscape (http://www.inkscape.org/) -->

<svg
   width="2.0068576"
   height="2.0068576"
   viewBox="0 0 0.53098106 0.5309811"
   version="1.1"
   id="svg1"
   inkscape:version="1.4.2 (f4327f4, 2025-05-13)"
   sodipodi:docname="whole_ui_mockup.svg"
   xml:space="preserve"
   xmlns:inkscape="http://www.inkscape.org/namespaces/inkscape"
   xmlns:sodipodi="http://sodipodi.sourceforge.net/DTD/sodipodi-0.dtd"
   xmlns="http://www.w3.org/2000/svg"
   xmlns:svg="http://www.w3.org/2000/svg"><sodipodi:namedview
     id="namedview1"
     pagecolor="#505050"
     bordercolor="#ffffff"
     borderopacity="1"
     inkscape:showpageshadow="0"
     inkscape:pageopacity="0"
     inkscape:pagecheckerboard="1"
     inkscape:deskcolor="#505050"
     inkscape:document-units="mm"
     showguides="true"
     inkscape:zoom="1"
     inkscape:cx="-291.5"
     inkscape:cy="224.5"
     inkscape:window-width="1920"
     inkscape:window-height="991"
     inkscape:window-x="-9"
     inkscape:window-y="-9"
     inkscape:window-maximized="1"
     inkscape:current-layer="layer1" /><defs
     id="defs1"><linearGradient
       id="swatch10"
       inkscape:swatch="solid"><stop
         style="stop-color:#ececec;stop-opacity:1;"
         offset="0"
         id="stop10" /></linearGradient><clipPath
       clipPathUnits="userSpaceOnUse"
       id="clipPath15"><rect
         style="fill:none;stroke:#000000;stroke-linecap:butt;stroke-linejoin:bevel;paint-order:stroke markers fill;stop-color:#000000"
         id="rect15-7"
         width="45.034248"
         height="38.955639"
         x="262.48285"
         y="121.00073" /></clipPath><inkscape:path-effect
       effect="fillet_chamfer"
       id="path-effect1"
       is_visible="true"
       lpeversion="1"
       nodesatellites_param="F,0,0,1,0,0,0,1 @ F,0,0,1,0,0,0,1 @ F,0,0,1,0,0,0,1 @ F,0,0,1,0,0,0,1"
       radius="0"
       unit="px"
       method="auto"
       mode="F"
       chamfer_steps="1"
       flexible="false"
       use_knot_distance="true"
       apply_no_radius="true"
       apply_with_radius="true"
       only_selected="false"
       hide_knots="false" /><clipPath
       clipPathUnits="userSpaceOnUse"
       id="clipPath1281"><path
         id="path1282"
         style="fill:#ff0000;fill-opacity:1;fill-rule:nonzero;stroke:none;stroke-width:0.264583"
         d="m 106.58471,66.366493 v 15.067296 h 14.98513 V 66.366493 Z m 7.21558,1.00769 h 5.3e-4 c 0.0389,2.64e-4 0.0779,7.93e-4 0.11678,0.0021 0.03,0.0011 0.0603,0.0021 0.0904,0.0041 0.0101,2.64e-4 0.0199,7.94e-4 0.03,5.29e-4 0.012,-5.29e-4 0.0241,-0.0021 0.0362,-0.0026 0.0343,-0.0019 0.069,-0.0026 0.10336,-0.0036 0.0331,-0.0011 0.0661,-0.0013 0.0992,0.0011 0.0249,0.0013 0.0495,0.0032 0.0744,0.0052 0.0251,0.0019 0.0503,0.004 0.0755,0.0052 0.0164,0.0013 0.0327,0.0035 0.0491,0.0041 0.0115,-1.35e-4 0.0231,-5.29e-4 0.0346,-5.29e-4 0.0162,2.01e-4 0.0325,0.0011 0.0486,0.0026 0.0188,0.0016 0.0376,0.003 0.0563,0.0057 0.0181,0.0021 0.036,0.0038 0.0543,0.0052 0.018,0.0016 0.0363,0.0033 0.0543,0.0057 0.0164,0.0019 0.0331,0.0029 0.0496,0.0041 0.0168,0.0011 0.0334,0.0021 0.0501,0.0041 0.0134,0.0019 0.0264,0.0045 0.0398,0.0062 0.009,0.0013 0.0167,0.0026 0.0258,0.0041 v 5.29e-4 c 0.0314,0.006 0.0438,0.02524 0.0398,0.04082 0.36921,0.0089 0.48938,0.2642 0.3602,0.434599 -0.002,0.01744 -0.007,0.03424 -0.0129,0.05013 0.0847,0.02638 0.12203,0.04053 0.12816,0.05168 l 5.3e-4,5.29e-4 v 5.29e-4 l 5.3e-4,5.29e-4 c 1e-5,2.09e-4 0,0.0013 0,0.0016 v 5.29e-4 5.29e-4 5.29e-4 5.29e-4 5.29e-4 5.3e-4 h -5.3e-4 v 0.0031 c -0.0224,0.02871 -0.25845,0.0534 -0.36535,0.273886 0.2378,0.07454 0.26033,0.31287 0.0698,0.420129 0.38132,0.111078 0.33495,0.438632 0.0176,0.476457 -10e-4,0.01796 -0.003,0.0365 -0.006,0.05581 -0.0621,0.445574 -0.11173,0.893059 -0.14779,1.34152 -0.005,0.06656 -0.0107,0.133384 -0.0155,0.199988 0.0158,0.0044 0.0274,0.0089 0.0346,0.01497 0.035,-7.94e-4 0.0704,-0.0024 0.10542,-0.0031 0.37972,-0.0071 0.46538,0.287375 0.25787,0.425813 0.0363,0.0011 0.0722,0.0019 0.10852,0.0031 0.45875,0.01514 0.44954,0.44436 0.046,0.490411 0.30324,0.103092 0.24475,0.469739 -0.17725,0.469739 h -0.10077 c 0.0812,0.138633 -0.0167,0.326773 -0.29404,0.345715 -0.005,0.03917 -0.0231,0.07604 -0.0527,0.107487 l -0.002,0.0956 c 0.0162,0.0054 0.0311,0.01071 0.0444,0.01601 0.029,0.01156 0.0533,0.03028 0.0806,0.04548 0.21151,0.118013 0.0473,0.136885 -0.12815,0.163815 -9e-5,0.01437 -5.3e-4,0.02854 -5.3e-4,0.04289 0.0644,0.01574 0.12854,0.03372 0.19172,0.05426 0.34916,0.113496 0.33395,0.387477 0.10645,0.463021 0.19766,0.04697 0.39352,0.09994 0.58653,0.163298 0.10545,0.03462 0.15982,0.06034 0.25425,0.101285 0.44723,0.194032 0.23388,0.628526 -0.21189,0.448035 0.0576,0.185404 -0.12788,0.357447 -0.43562,0.222208 -0.15187,-0.06674 -0.30545,-0.129485 -0.45992,-0.189651 0.0354,0.06682 0.0273,0.14714 -0.0331,0.216006 0.002,0.332245 0.005,0.664406 0.005,0.996839 -1.3e-4,0.122084 -0.0314,0.214032 -0.0775,0.275436 0.1499,0.07117 0.30048,0.141685 0.45061,0.212389 0.42999,0.202512 0.21435,0.608653 -0.20463,0.449067 0.0109,0.09772 0.0205,0.195315 0.0248,0.293523 0.0116,0.232402 0.0286,0.464392 0.0434,0.696598 0.006,0.0931 0.01,0.185954 0.0155,0.279053 0.008,0.134993 0.02,0.270383 0.0233,0.40566 5.3e-4,0.04143 -5.3e-4,0.08258 -5.3e-4,0.124023 -0.007,0.217559 -0.017,0.436957 -0.0615,0.650608 -0.01,0.03693 -0.0189,0.0754 -0.0305,0.11317 0.21766,0.08567 0.27041,0.259337 0.19172,0.371554 0.12728,0.06163 0.1903,0.158269 0.18811,0.245981 0.39418,-0.01156 0.47919,0.434565 -0.006,0.590661 -0.0358,0.01162 -0.0723,0.02013 -0.10904,0.02842 -0.0446,0.01177 -0.0902,0.01868 -0.1359,0.02429 -0.0287,0.0019 -0.0567,0.008 -0.0847,0.01344 -0.004,7.94e-4 -0.007,0.0024 -0.01,0.0031 -0.009,0.0019 -0.0179,0.0044 -0.0269,0.0062 -0.003,7.94e-4 -0.007,0.0019 -0.0124,0.0026 h -0.001 l -5.3e-4,0.0031 c -0.0152,0.0071 -0.0308,0.0131 -0.0465,0.01913 h -0.001 -5.3e-4 v 0.0026 h -5.2e-4 -5.3e-4 -5.3e-4 v 5.29e-4 h -5.3e-4 -0.001 -5.3e-4 c -2.6e-4,8.2e-5 -7.9e-4,2.06e-4 -0.002,5.29e-4 h -5.3e-4 -5.2e-4 v 5.29e-4 h -5.3e-4 v 5.29e-4 c -0.0166,0.0062 -0.0154,0.0053 -0.0248,0.0083 h -5.2e-4 l -5.3e-4,5.29e-4 h -5.3e-4 v 5.3e-4 h -10e-4 -5.3e-4 -5.3e-4 v 5.29e-4 h -5.3e-4 -5.3e-4 l -0.001,5.29e-4 h -5.3e-4 c -0.008,0.01569 -0.0285,0.02866 -0.0615,0.02842 -0.007,-5.3e-5 -0.015,-3.2e-5 -0.0227,0 -0.008,0.0021 -0.0165,0.0039 -0.0248,0.0057 h -5.3e-4 -5.2e-4 -5.3e-4 l -5.3e-4,5.29e-4 h -5.3e-4 -5.3e-4 -0.001 -5.3e-4 -5.3e-4 c 0.004,0.01077 0.002,0.02265 -0.005,0.03256 0.004,-7.94e-4 0.009,-6.6e-5 0.0124,0.0016 l 5.3e-4,5.29e-4 5.3e-4,5.3e-4 5.3e-4,5.29e-4 5.3e-4,5.29e-4 h 5.3e-4 v 5.29e-4 h 5.3e-4 v 5.29e-4 5.29e-4 c 1.2e-4,2.15e-4 7.9e-4,0.0013 0.001,0.0016 l 5.2e-4,5.29e-4 h 5.3e-4 v 5.29e-4 h 5.3e-4 v 5.29e-4 5.3e-4 5.29e-4 5.29e-4 5.29e-4 5.29e-4 c -3e-5,9.8e-5 -7.9e-4,0.0016 -0.001,0.0021 -0.002,0.0033 -0.006,0.0082 -0.0124,0.0093 -0.0151,0.0026 -0.0299,0.0064 -0.045,0.0093 -0.0294,0.0056 -0.0595,0.01222 -0.0889,0.01757 -0.0354,0.0064 -0.0707,0.01201 -0.10645,0.0155 -0.0352,0.0038 -0.0706,0.0076 -0.10595,0.01085 -0.0385,0.0035 -0.0767,0.007 -0.11524,0.01035 -0.0532,0.0047 -0.10679,0.0094 -0.1602,0.01188 -0.0459,0.0021 -0.092,0.005 -0.13796,0.0031 -0.0291,-0.0011 -0.0573,-0.0038 -0.0863,-0.0062 -0.031,-0.0019 -0.0621,-0.0033 -0.093,-0.0062 l -5.3e-4,-5.29e-4 h -5.2e-4 -5.3e-4 -5.3e-4 v -5.29e-4 h -5.3e-4 -5.3e-4 -5.3e-4 l -5.3e-4,-5.29e-4 c -0.001,-5.3e-4 -0.003,-0.0016 -0.004,-0.0021 h -5.3e-4 l -5.3e-4,-5.29e-4 c -5.2e-4,-4e-5 1.5e-4,3.7e-5 -0.002,0 -0.003,5e-6 -0.005,-0.0011 -0.008,-0.0016 h -5.3e-4 c -0.0155,-0.0013 -0.031,-0.0029 -0.0465,-0.0052 h -5.3e-4 -5.3e-4 -5.3e-4 -5.3e-4 c -5.3e-4,-1.06e-4 -0.001,-2.01e-4 -0.002,-5.29e-4 h -5.3e-4 -5.3e-4 c -2e-4,2e-6 -8e-4,2.4e-5 -10e-4,0 h -5.3e-4 -5.3e-4 v -5.29e-4 h -5.3e-4 -5.3e-4 -5.3e-4 c -0.0169,-0.0027 -0.0338,-0.0056 -0.0506,-0.0088 -0.0136,-0.0024 -0.0266,-0.0047 -0.0403,-0.0062 -0.005,-7.94e-4 -0.01,-0.0032 -0.0124,-0.0057 l -5.3e-4,-5.3e-4 -5.3e-4,-5.29e-4 -5.3e-4,-5.29e-4 -5.3e-4,-5.29e-4 -5.3e-4,-5.29e-4 v -5.29e-4 -5.3e-4 l -5.3e-4,-5.29e-4 v -5.29e-4 -5.29e-4 -5.29e-4 -5.29e-4 -5.3e-4 -5.29e-4 -5.29e-4 -5.29e-4 l 5.3e-4,-5.29e-4 5.3e-4,-5.29e-4 5.3e-4,-5.3e-4 h 0.001 l 5.3e-4,-5.29e-4 5.3e-4,-5.29e-4 5.2e-4,-5.29e-4 h 0.001 v -5.29e-4 h 5.3e-4 l 5.3e-4,-5.29e-4 h 5.3e-4 v -5.3e-4 h 5.3e-4 v -5.29e-4 c -0.009,-2.62e-4 -0.0183,-0.0024 -0.0274,-0.0031 -0.0319,-0.0029 -0.0626,-0.01087 -0.093,-0.02066 -0.22594,-0.07287 -0.14193,-0.152974 -0.002,-0.233061 -0.0568,-0.01019 -0.11388,-0.02101 -0.17053,-0.03152 -0.01,-0.0019 -0.0182,-0.0053 -0.0253,-0.0088 -0.3053,-0.0906 -0.30238,-0.453059 0.0765,-0.548288 -0.43874,-0.07778 -0.39595,-0.503293 0.005,-0.495575 0.0271,5.29e-4 0.0555,0.0039 0.0858,0.0088 h 5.3e-4 5.3e-4 0.001 5.3e-4 c -0.0122,-0.07591 -0.0195,-0.152609 -0.0279,-0.228409 -0.0213,-0.191487 -0.0212,-0.199427 -0.0393,-0.39791 -0.0308,-0.352798 -0.0508,-0.706575 -0.0646,-1.0604 -0.009,-0.241723 -0.0145,-0.483684 -0.0104,-0.725537 0.003,-0.205457 0.0235,-0.409999 0.047,-0.613916 0.0149,-0.118467 0.0317,-0.236381 0.0517,-0.353983 -0.0868,-0.04374 -0.17392,-0.08748 -0.26096,-0.130741 -0.33764,-0.167834 -0.2858,-0.468985 -0.0434,-0.500745 -0.0853,-0.03897 -0.17066,-0.07758 -0.25632,-0.115756 -0.30415,-0.135583 -0.30916,-0.387487 -0.14107,-0.473355 10e-4,-0.01103 0.004,-0.02193 0.007,-0.03256 -0.45294,-0.01945 -0.4459,-0.490506 0.0336,-0.495575 0.26561,-0.0028 0.12715,-0.0019 0.41548,0.0031 0.0207,0.0011 0.0408,0.0021 0.0615,0.0031 -0.0155,-0.0904 0.0352,-0.185375 0.14934,-0.236162 -0.009,-0.0283 -0.0169,-0.05971 -0.0212,-0.09405 -0.0887,-0.007 -0.17746,-0.01344 -0.26614,-0.02016 -0.38073,-0.02881 -0.44294,-0.333507 -0.22169,-0.450619 -0.0543,-0.08208 -0.0464,-0.180896 0.0217,-0.251664 -0.30766,-0.07851 -0.33151,-0.350499 -0.12195,-0.448035 -0.0501,-0.0097 -0.0937,-0.02392 -0.13074,-0.04186 -0.0489,-0.0021 -0.11203,-0.0055 -0.19844,-0.0093 -0.49067,-0.02146 -0.46978,-0.516553 0.0212,-0.495061 0.40799,0.01786 0.31174,0.01225 0.54932,0.02429 0.005,-0.08401 0.0654,-0.166327 0.18293,-0.208772 -0.21576,-0.0612 -0.25993,-0.262038 -0.11937,-0.383439 -0.0849,-0.02697 -0.14142,-0.07644 -0.16898,-0.133326 -0.26717,0.04284 -0.15252,0.02302 -0.56173,0.09922 -0.48275,0.08991 -0.57282,-0.397563 -0.0894,-0.487307 0.0424,-0.0079 0.0792,-0.01413 0.11162,-0.02016 -0.002,-0.122383 0.11559,-0.24847 0.35761,-0.258897 0.19604,-0.0085 0.3919,-0.01323 0.58807,-0.01654 -0.002,-0.17839 0.002,-0.357238 0.0124,-0.535368 -0.0385,-0.0039 -0.0725,-0.0163 -0.10077,-0.03462 -0.23032,0.05194 -0.3723,-0.0474 -0.39016,-0.172598 -0.21323,-0.08143 -0.20456,-0.372438 0.14573,-0.479557 0.13321,-0.04072 0.2655,-0.08201 0.39791,-0.125058 h 5.3e-4 v -0.0026 -0.0026 l -5.3e-4,-5.29e-4 v -5.29e-4 -5.29e-4 -5.29e-4 h 5.3e-4 l 5.3e-4,-0.0011 v -5.29e-4 -0.0016 l 5.3e-4,-5.3e-4 c -0.02,-0.01487 -0.0359,-0.03171 -0.0491,-0.04961 -0.33546,-0.08951 -0.30249,-0.448673 0.0615,-0.476456 0.005,-5.3e-4 0.01,-0.0013 0.0155,-0.0016 -0.0168,-0.08653 0.0273,-0.182941 0.13849,-0.245464 -0.40715,0.0066 -0.52378,-0.300128 -0.32969,-0.472324 -0.14179,-0.162986 -0.0379,-0.422593 0.31884,-0.450617 0.009,-0.0034 0.0194,-0.0065 0.0279,-0.0098 0.0173,-0.0067 0.0351,-0.01355 0.0527,-0.01963 -0.0112,2.22e-4 -0.023,0.0011 -0.0341,0.0021 -0.008,7.94e-4 -0.0168,0.0021 -0.0248,0.0041 -0.0593,0.01595 -0.0747,-0.04605 -0.015,-0.06046 0.0106,-0.0026 0.0206,-0.0043 0.0315,-0.0052 0.0252,-0.0024 0.0511,-0.0031 0.0765,-0.0031 z m 1.2206,11.581204 c -10e-6,7.93e-4 -3e-5,0.0019 0,0.0026 h 5.3e-4 c 2e-5,-5.3e-4 -1e-5,-0.0011 0,-0.0016 v -5.29e-4 z m -0.26975,0.787548 c -0.002,0.0039 -0.003,0.008 -0.005,0.01188 0.002,-2.65e-4 0.003,-7.94e-4 0.005,-0.0011 l 5.3e-4,-5.29e-4 h 5.3e-4 5.3e-4 5.3e-4 5.3e-4 5.3e-4 5.3e-4 5.2e-4 v -5.29e-4 h 5.3e-4 5.3e-4 l 5.3e-4,-5.29e-4 h 5.3e-4 c 0.005,-0.0021 0.0107,-0.0042 0.016,-0.0062 -0.007,-0.0011 -0.0138,-0.0021 -0.0207,-0.0031 z m -0.97772,0.07338 c 0.002,2.7e-5 0.005,3e-6 0.007,0 -0.002,1.19e-4 -0.004,9.8e-5 -0.007,0 z m 0.89193,0.570508 c -0.002,2.64e-4 -0.004,7.94e-4 -0.007,0.0011 -0.008,7.94e-4 -0.0142,0.0026 -0.0222,0.0041 -0.003,7.93e-4 -0.006,0.0013 -0.01,0.0021 0.0198,-0.0019 0.0398,-0.0042 0.0594,-0.0072 -0.006,-2.9e-5 -0.0135,-1.3e-5 -0.0202,0 z m -0.39326,0.04186 c -0.006,0.0013 -0.0116,0.0028 -0.017,0.0041 0.0218,-0.0011 0.0435,-0.0024 0.0651,-0.0041 -0.0148,9.8e-5 -0.0297,-7.1e-5 -0.0444,0 -0.001,3e-6 -0.002,0 -0.003,0 z" /></clipPath><clipPath
       clipPathUnits="userSpaceOnUse"
       id="clipPath1534"><path
         id="path1535"
         style="fill:#ff0000;fill-opacity:1;fill-rule:nonzero;stroke:none;stroke-width:0.264583"
         d="M 102.19583,61.868574 V 85.36895 h 23.49986 V 61.868574 Z m 12.48658,5.495274 5.3e-4,5.29e-4 h 0.002 c 0.0107,3e-6 0.0214,-1.6e-5 0.032,0 0.009,1.9e-5 0.0189,-7.4e-5 0.0279,0 0.0136,1.14e-4 0.0272,7.94e-4 0.0408,0.0011 0.0115,2.65e-4 0.0227,2.44e-4 0.0341,5.3e-4 0.05,-0.0029 0.10024,-0.0034 0.15038,-0.0016 h 5.3e-4 c 0.0227,7.94e-4 0.0454,0.0021 0.0682,0.0031 0.0288,-2.04e-4 0.0576,-7.94e-4 0.0863,-0.0011 0.0295,-5.29e-4 0.0594,-0.0011 0.0889,-0.0021 0.0219,-7.94e-4 0.0346,0.0084 0.0377,0.01913 0.008,0.0011 0.0155,0.0024 0.0233,0.0041 0.019,-2.65e-4 0.0379,-5.3e-4 0.0568,-5.3e-4 0.13433,1.43e-4 0.14419,0.126257 0.0289,0.144177 -0.0224,0.01373 -0.0568,0.01786 -0.0997,0.0031 -0.0215,5.29e-4 -0.0431,7.94e-4 -0.0646,0.0016 0.0216,0.01267 0.0408,0.02665 0.0574,0.04186 0.0484,-0.0013 0.077,-0.0021 0.13229,-0.0041 0.0509,-0.0019 0.10216,-0.0028 0.15296,-0.0078 0.007,-7.93e-4 0.013,-0.0019 0.0202,-0.0026 0.009,-0.0011 0.0174,-0.0016 0.0253,-0.0016 0.11915,7.94e-4 0.12141,0.129035 -0.0129,0.147278 -0.005,5.29e-4 -0.009,0.0011 -0.0134,0.0016 -0.0552,0.0054 -0.11048,0.0073 -0.16588,0.0093 -0.0214,7.94e-4 -0.039,0.0016 -0.0553,0.0021 0.0107,0.06194 -0.005,0.126008 -0.047,0.181385 -0.002,0.01744 -0.007,0.03423 -0.0129,0.05013 0.0847,0.02638 0.12203,0.04053 0.12816,0.05167 l 5.3e-4,5.29e-4 v 5.3e-4 l 5.3e-4,5.29e-4 c 1e-5,2.09e-4 0,0.0019 0,0.0021 v 5.3e-4 5.29e-4 5.29e-4 5.29e-4 5.29e-4 5.3e-4 h -5.3e-4 v 0.0031 c -0.0224,0.02871 -0.25846,0.0534 -0.36536,0.273886 0.2378,0.07454 0.2601,0.31287 0.0698,0.420129 0.38132,0.111078 0.33536,0.438632 0.0181,0.476457 -0.001,0.01797 -0.003,0.0365 -0.006,0.05581 -0.0621,0.445574 -0.11173,0.893061 -0.14779,1.34152 -0.005,0.06656 -0.0107,0.133384 -0.0155,0.199988 0.0158,0.0044 0.0274,0.0089 0.0346,0.01498 0.035,-7.94e-4 0.0704,-0.0024 0.10542,-0.0031 0.37972,-0.0071 0.46537,0.287377 0.25786,0.425815 0.0363,0.0011 0.0722,0.0019 0.10852,0.0031 0.45875,0.01513 0.4495,0.444357 0.046,0.490408 0.30324,0.103095 0.24475,0.469738 -0.17725,0.469738 h -0.10077 c 0.0812,0.138634 -0.0167,0.326779 -0.29404,0.345716 -0.005,0.03917 -0.0231,0.07604 -0.0527,0.107487 l -0.002,0.0956 c 0.0162,0.0054 0.0311,0.01074 0.0444,0.01603 0.029,0.01156 0.0528,0.03027 0.0801,0.04547 0.21152,0.118012 0.0473,0.136882 -0.12816,0.163817 -9e-5,0.01437 -5.3e-4,0.02854 -5.3e-4,0.04289 0.0644,0.01574 0.12854,0.03372 0.19172,0.05426 0.34916,0.113495 0.33394,0.387477 0.10645,0.463021 0.19765,0.04697 0.3935,0.09994 0.58653,0.163298 0.10543,0.03462 0.15981,0.06034 0.25424,0.101285 0.44723,0.194032 0.2339,0.628526 -0.21187,0.448035 0.0576,0.185404 -0.1279,0.357444 -0.43563,0.22221 -0.15188,-0.06674 -0.30546,-0.129487 -0.45992,-0.189653 0.0354,0.06682 0.0273,0.147142 -0.0331,0.216006 0.002,0.332247 0.005,0.664405 0.005,0.996838 -1.3e-4,0.122084 -0.0314,0.214032 -0.0775,0.275437 0.1499,0.07117 0.30049,0.141684 0.45062,0.212389 0.42999,0.202512 0.21434,0.608655 -0.20464,0.449069 0.0109,0.09772 0.0205,0.195313 0.0248,0.293521 0.0116,0.232402 0.0286,0.464391 0.0434,0.696598 0.006,0.0931 0.01,0.185954 0.0155,0.279053 0.008,0.134993 0.0199,0.270386 0.0232,0.405662 5.3e-4,0.04143 -5.3e-4,0.08258 -5.3e-4,0.124023 -0.007,0.217557 -0.017,0.436954 -0.0615,0.650606 -0.01,0.03693 -0.0189,0.0754 -0.0305,0.11317 0.21767,0.08567 0.27041,0.259339 0.19172,0.371554 0.12727,0.06163 0.1903,0.158269 0.1881,0.245981 0.39419,-0.01156 0.47954,0.434564 -0.006,0.590661 -0.0358,0.01162 -0.0723,0.02013 -0.10904,0.02842 -0.0446,0.01177 -0.0902,0.01868 -0.13591,0.02429 -0.0287,0.0019 -0.0568,0.008 -0.0847,0.01344 -0.004,7.94e-4 -0.007,0.0024 -0.01,0.0031 -0.009,0.0019 -0.0184,0.0044 -0.0274,0.0062 -0.003,7.93e-4 -0.007,0.0019 -0.0124,0.0026 h -5.3e-4 l -0.001,0.0031 c -0.0152,0.0071 -0.0303,0.0131 -0.046,0.01913 h -0.001 -5.3e-4 v 0.0031 h -5.3e-4 -5.3e-4 -10e-4 v 0.0016 h -5.3e-4 -5.3e-4 -5.3e-4 l -10e-4,5.29e-4 h -5.3e-4 -5.3e-4 -5.3e-4 -5.3e-4 -0.001 v 5.29e-4 h -5.3e-4 v 5.29e-4 c -0.005,0.0016 -0.008,0.0033 -0.0103,0.0041 0.0112,-2.46e-4 0.0224,-7.94e-4 0.0336,-0.0011 0.0251,-7.93e-4 0.0505,-0.0019 0.0754,-0.0057 0.0446,-0.0057 0.0888,-0.01262 0.13333,-0.01913 0.0384,-0.0046 0.077,-0.0087 0.11576,-0.0067 0.0885,0.0046 0.0915,0.07949 0.0243,0.0987 0.0151,0.0093 0.0296,0.01741 0.0331,0.02429 l 5.3e-4,5.29e-4 v 5.29e-4 5.29e-4 5.29e-4 l 5.3e-4,5.29e-4 v 5.3e-4 l -5.3e-4,5.29e-4 v 5.29e-4 5.29e-4 l -5.3e-4,5.29e-4 v 5.29e-4 l -5.3e-4,5.3e-4 c -0.004,0.003 -0.013,0.0064 -0.0264,0.0083 -0.0337,0.0047 -0.0679,0.0056 -0.1018,0.0072 -0.0416,0.0019 -0.0825,0.0057 -0.12402,0.0083 -0.0495,0.0024 -0.0993,0.0026 -0.14883,0.0031 -0.0485,5.29e-4 -0.0967,7.94e-4 -0.14521,5.29e-4 -0.0428,-2.65e-4 -0.0859,-7.94e-4 -0.12867,-0.0016 -0.003,5.3e-4 -0.006,0.0011 -0.009,0.0016 -0.0354,0.0064 -0.0707,0.01251 -0.10645,0.01603 -0.0352,0.0038 -0.0706,0.0076 -0.10594,0.01085 -0.0385,0.0035 -0.0767,0.007 -0.11524,0.01035 -0.0532,0.0047 -0.10679,0.0094 -0.16019,0.01188 -0.0459,0.0021 -0.092,0.005 -0.13798,0.0031 -0.0291,-0.0011 -0.0573,-0.0038 -0.0863,-0.0062 -0.031,-0.0019 -0.0621,-0.0033 -0.093,-0.0062 l -5.3e-4,-5.29e-4 h -5.3e-4 -5.3e-4 -5.3e-4 v -0.0011 h -5.3e-4 -5.3e-4 -5.3e-4 l -5.2e-4,-5.29e-4 c -0.001,-5.29e-4 -0.003,-0.0021 -0.004,-0.0026 h -5.3e-4 l -5.3e-4,-5.29e-4 c -5.3e-4,-4.2e-5 -2.6e-4,3.4e-5 -0.002,0 -0.003,3e-6 -0.005,-0.0016 -0.008,-0.0021 h -5.3e-4 c -0.0155,-0.0013 -0.031,-0.0029 -0.0465,-0.0052 h -5.3e-4 -0.001 -5.3e-4 -5.3e-4 -5.2e-4 -5.3e-4 l -5.3e-4,-5.29e-4 h -5.3e-4 -0.001 -5.3e-4 -5.3e-4 -5.3e-4 v -5.29e-4 h -0.001 -5.3e-4 -5.2e-4 c -0.0169,-0.0027 -0.0337,-0.0056 -0.0507,-0.0088 -0.0136,-0.0024 -0.0266,-0.0047 -0.0403,-0.0062 -0.005,-7.93e-4 -0.01,-0.0032 -0.0124,-0.0057 l -5.3e-4,-5.29e-4 -5.3e-4,-5.3e-4 -5.3e-4,-5.29e-4 -5.3e-4,-5.29e-4 -5.3e-4,-5.29e-4 v -5.29e-4 -5.29e-4 l -5.3e-4,-5.3e-4 v -5.29e-4 -5.29e-4 -5.29e-4 -5.29e-4 -5.29e-4 -5.3e-4 -5.29e-4 -5.29e-4 l 5.3e-4,-5.29e-4 5.3e-4,-5.29e-4 5.3e-4,-5.29e-4 h 10e-4 l 5.3e-4,-5.3e-4 5.2e-4,-0.0016 5.3e-4,-5.29e-4 c -0.007,-0.0016 -0.0142,-0.0037 -0.0201,-0.0062 -0.001,-1.64e-4 -0.003,-5.29e-4 -0.004,-5.29e-4 -0.0319,-0.0029 -0.0626,-0.01087 -0.093,-0.02066 -0.22593,-0.07287 -0.14182,-0.152974 -0.002,-0.233061 -0.0568,-0.01019 -0.11389,-0.02101 -0.17054,-0.03152 -0.01,-0.0019 -0.0182,-0.0053 -0.0253,-0.0088 -0.3053,-0.0906 -0.30249,-0.453059 0.0765,-0.548288 -0.43874,-0.07778 -0.39547,-0.503293 0.005,-0.495575 0.0271,5.29e-4 0.0555,0.0039 0.0858,0.0088 h 5.3e-4 5.3e-4 0.001 5.3e-4 c -0.0122,-0.07591 -0.0195,-0.152609 -0.0279,-0.22841 -0.0213,-0.191487 -0.0212,-0.199427 -0.0393,-0.397909 -0.0308,-0.352798 -0.0508,-0.706575 -0.0646,-1.0604 -0.009,-0.241723 -0.0148,-0.483685 -0.0108,-0.725538 0.003,-0.205454 0.023,-0.409998 0.0465,-0.613915 0.0149,-0.118467 0.0322,-0.236382 0.0522,-0.353984 -0.0868,-0.04374 -0.17393,-0.08748 -0.26097,-0.130741 -0.33764,-0.167833 -0.28586,-0.468984 -0.0434,-0.500745 -0.0853,-0.03897 -0.17065,-0.07758 -0.25631,-0.115755 -0.30415,-0.135583 -0.30917,-0.387488 -0.14108,-0.473356 0.001,-0.01103 0.004,-0.02193 0.007,-0.03256 -0.45294,-0.01945 -0.44538,-0.490505 0.0341,-0.495575 0.26561,-0.0028 0.12715,-0.0019 0.41548,0.0031 0.0207,0.0011 0.0408,0.0021 0.0615,0.0031 -0.0155,-0.0904 0.0352,-0.185375 0.14935,-0.236162 -0.009,-0.0283 -0.0169,-0.05971 -0.0212,-0.09405 -0.0887,-0.007 -0.17746,-0.01344 -0.26613,-0.02016 -0.38073,-0.02881 -0.44294,-0.333507 -0.22169,-0.45062 -0.0543,-0.08208 -0.0469,-0.180895 0.0212,-0.251663 -0.30765,-0.07851 -0.33152,-0.350499 -0.12195,-0.448035 -0.0501,-0.0097 -0.0937,-0.02392 -0.13074,-0.04186 -0.0489,-0.0021 -0.11203,-0.0055 -0.19844,-0.0093 -0.49067,-0.02146 -0.46929,-0.516554 0.0217,-0.495062 0.40799,0.01786 0.31174,0.01225 0.54932,0.02429 0.005,-0.08401 0.0654,-0.166328 0.18294,-0.208772 -0.21576,-0.0612 -0.25994,-0.262038 -0.11938,-0.38344 -0.0849,-0.02697 -0.14142,-0.07644 -0.16898,-0.133326 -0.26717,0.04284 -0.15251,0.02302 -0.56172,0.09922 -0.48275,0.08991 -0.57282,-0.397563 -0.0894,-0.487307 0.0424,-0.0079 0.0792,-0.01413 0.11162,-0.02016 -0.002,-0.122383 0.11558,-0.24847 0.3576,-0.258898 0.19604,-0.0085 0.39191,-0.01323 0.58808,-0.01654 -0.002,-0.17839 0.002,-0.357238 0.0124,-0.535369 -0.0385,-0.0039 -0.0725,-0.0163 -0.10077,-0.03462 -0.23032,0.05194 -0.3723,-0.0474 -0.39015,-0.172598 -0.21324,-0.08143 -0.20457,-0.372438 0.14572,-0.479558 0.1332,-0.04072 0.26551,-0.08201 0.39791,-0.125058 h 5.3e-4 v -0.0026 -0.0031 l -5.3e-4,-5.29e-4 v -5.29e-4 -5.29e-4 -5.3e-4 h 5.3e-4 l 5.3e-4,-0.0011 v -5.29e-4 -0.0016 l 5.3e-4,-5.29e-4 c -0.02,-0.01487 -0.0359,-0.03171 -0.0491,-0.04961 -0.33545,-0.08951 -0.30255,-0.448678 0.0615,-0.476457 0.005,-5.29e-4 0.01,-0.0013 0.0155,-0.0016 -0.0168,-0.08653 0.0273,-0.182938 0.13849,-0.245462 -0.40714,0.0066 -0.52378,-0.300125 -0.3297,-0.472324 -0.14178,-0.162986 -0.0379,-0.422592 0.31885,-0.450617 0.009,-0.0034 0.0194,-0.0065 0.0279,-0.0098 0.0173,-0.0067 0.0351,-0.01355 0.0527,-0.01963 -0.0112,2.22e-4 -0.023,0.0011 -0.0341,0.0021 -0.008,7.94e-4 -0.0168,0.0021 -0.0248,0.0041 -0.0593,0.01595 -0.0747,-0.04605 -0.015,-0.06046 0.0106,-0.0026 0.0201,-0.0043 0.031,-0.0052 0.0252,-0.0024 0.0516,-0.0031 0.077,-0.0031 l 0.0114,-0.0011 h 5.3e-4 c 0.0389,2.65e-4 0.0779,7.94e-4 0.11678,0.0021 0.03,0.0011 0.0603,0.0021 0.0904,0.0041 0.0101,2.64e-4 0.0199,7.93e-4 0.03,5.29e-4 0.012,-5.29e-4 0.0241,-0.0026 0.0362,-0.0031 0.0343,-0.0019 0.069,-0.0021 0.10336,-0.0031 0.0331,-0.0011 0.0661,-0.0013 0.0992,0.0011 0.0249,0.0013 0.0495,0.0032 0.0744,0.0052 0.006,5.29e-4 0.0123,0.0011 0.0186,0.0016 0.012,-0.0011 0.0242,-0.0019 0.0362,-0.0026 0.0445,-0.0021 0.0892,-0.0024 0.13384,-0.0026 0.006,-7.94e-4 0.0121,-0.0019 0.0181,-0.0026 0.0167,-0.0021 0.0333,-0.0041 0.0501,-0.0057 0.0142,-0.0013 0.0282,-0.0034 0.0424,-0.0041 0.0112,-5.29e-4 0.0224,-5.29e-4 0.0336,-5.29e-4 z m 0.33848,11.591539 c -10e-6,7.93e-4 -3e-5,0.0019 0,0.0026 h 5.3e-4 c 2e-5,-5.3e-4 -1e-5,-0.0011 0,-0.0016 v -5.29e-4 z m -0.26975,0.787548 c -0.002,0.0039 -0.003,0.008 -0.005,0.01188 0.002,-2.65e-4 0.003,-7.94e-4 0.005,-0.0011 l 5.3e-4,-5.29e-4 h 5.3e-4 5.3e-4 5.3e-4 5.3e-4 5.3e-4 5.3e-4 5.2e-4 v -5.29e-4 h 5.3e-4 5.3e-4 l 5.3e-4,-5.29e-4 h 5.3e-4 c 0.005,-0.0021 0.0107,-0.0042 0.016,-0.0062 -0.007,-0.0011 -0.0138,-0.0021 -0.0207,-0.0031 z m -0.97772,0.07338 c 0.002,2.7e-5 0.005,3e-6 0.007,0 -0.002,1.19e-4 -0.004,9.8e-5 -0.007,0 z m 0.49867,0.612365 c -0.006,0.0013 -0.0116,0.0028 -0.017,0.0041 0.0218,-0.0011 0.0435,-0.0024 0.0651,-0.0041 -0.0148,9.8e-5 -0.0297,-7.1e-5 -0.0444,0 -0.001,3e-6 -0.002,0 -0.003,0 z" /></clipPath><clipPath
       clipPathUnits="userSpaceOnUse"
       id="clipPath1537"><path
         id="path1538"
         style="fill:#ffffff;fill-opacity:0.995825;stroke:#ffffff;stroke-width:0.1;stroke-linecap:round;stroke-linejoin:round;paint-order:fill markers stroke"
         d="m 106.29894,65.427013 v 16.246555 h 8.89248 v -1.261423 c -0.0117,7.94e-4 -0.0234,0.0019 -0.0351,0.0026 -0.0495,0.0024 -0.0993,0.0026 -0.14883,0.0031 -0.0485,5.29e-4 -0.0967,7.94e-4 -0.14521,5.29e-4 -0.0527,-5.29e-4 -0.10543,-0.0011 -0.15813,-0.0021 -0.001,-2.9e-5 -0.002,2.7e-5 -0.003,0 -0.01,0.0011 -0.0197,0.0013 -0.0295,0.0021 -0.0698,0.0046 -0.1398,0.0059 -0.2098,0.0072 -0.0722,0.0019 -0.14433,-7.93e-4 -0.21653,-0.0026 -0.0633,-0.0016 -0.12635,-0.0021 -0.18965,-0.0036 -0.05,-0.0016 -0.10038,-0.0024 -0.15038,-0.0031 -0.0305,-5.29e-4 -0.061,-7.94e-4 -0.0915,-0.0011 -0.0183,2.01e-4 -0.0365,-2.15e-4 -0.0548,-0.0016 -0.10208,-0.0067 -0.0951,-0.110453 0.007,-0.103354 0.0162,0.0011 0.0323,0.0016 0.0486,0.0016 0.0308,1.88e-4 0.0617,5.3e-4 0.0925,0.0011 0.0504,7.94e-4 0.10101,0.0016 0.15141,0.0031 0.0439,0.0011 0.0878,0.0019 0.13178,0.0026 0.0104,-0.01757 0.0345,-0.03112 0.0723,-0.02997 0.0153,5.29e-4 0.0304,0.0016 0.0455,0.0031 0.0289,0.0026 0.0578,0.0045 0.0868,0.0057 0.0451,0.0024 0.0899,0.0043 0.13488,0.0078 0.0546,0.0035 0.10955,0.0062 0.16433,0.0078 10e-4,4e-5 0.003,-3.9e-5 0.004,0 0.0473,-0.0042 0.0944,-0.01111 0.14159,-0.01497 0.007,-5.29e-4 0.0147,-7.94e-4 0.0217,-0.0011 0.0123,-5.3e-4 0.0244,-7.94e-4 0.0367,-0.0016 0.0168,-7.94e-4 0.0338,-5.29e-4 0.0506,-5.29e-4 0.0265,-2.36e-4 0.0526,-7.94e-4 0.0791,-0.0016 0.0251,-7.93e-4 0.0507,-0.0019 0.0755,-0.0057 0.0296,-0.0038 0.059,-0.008 0.0884,-0.01241 V 67.725002 c -0.048,7.93e-4 -0.0281,-6.7e-5 -0.10853,0.0011 -0.1444,0.0013 -0.14592,-0.144947 -0.001,-0.146246 0.0808,-7.94e-4 0.0589,6.6e-5 0.10956,-0.0011 v -0.04289 c -0.0284,0.0011 -0.0568,0.0024 -0.0853,0.0036 -0.0952,0.0039 -0.19055,0.0117 -0.28525,0.0217 -0.0604,0.0069 -0.12079,0.01339 -0.18139,0.0181 -0.0446,0.0032 -0.0891,0.0049 -0.13384,0.0052 -0.0523,-1.59e-4 -0.1048,-7.94e-4 -0.1571,-0.0011 -0.008,-2.9e-5 -0.0158,5.3e-5 -0.0238,0 -0.0503,-2.62e-4 -0.0829,-0.0182 -0.0982,-0.04134 -0.0255,0.0019 -0.051,0.0033 -0.0765,0.0047 -0.0426,0.0036 -0.085,0.0084 -0.12765,0.01241 -0.0176,0.0016 -0.0356,0.0027 -0.0532,0.0041 -0.14424,0.0114 -0.15554,-0.134368 -0.0114,-0.145727 0.0169,-0.0013 0.0343,-0.0026 0.0512,-0.0041 0.0444,-0.0042 0.0884,-0.0094 0.13281,-0.01291 0.0381,-0.0021 0.0762,-0.0034 0.1142,-0.0072 0.0499,-0.0046 0.0998,-0.01042 0.14986,-0.01344 0.0444,-0.0021 0.0888,-0.0024 0.13333,-0.0026 0.006,-0.0011 0.0128,-0.0019 0.0191,-0.0026 0.0167,-0.0021 0.0333,-0.0041 0.0501,-0.0057 0.0142,-0.0013 0.0282,-0.0034 0.0424,-0.0041 0.0112,-5.29e-4 0.0224,-5.29e-4 0.0336,-5.29e-4 0.0107,3e-6 0.0213,-1.6e-5 0.032,0 0.009,1.9e-5 0.0189,-7.4e-5 0.0279,0 0.0136,1.14e-4 0.0272,7.94e-4 0.0408,0.0011 0.0119,2.65e-4 0.0238,2.44e-4 0.0357,5.3e-4 0.0496,-0.0028 0.0991,-0.0034 0.14882,-0.0016 0.0231,7.94e-4 0.0466,0.0021 0.0698,0.0031 0.0285,-2.01e-4 0.0568,-7.94e-4 0.0853,-0.0011 0.0221,-2.64e-4 0.0444,-7.93e-4 0.0667,-0.0016 v -1.937867 z" /></clipPath><clipPath
       clipPathUnits="userSpaceOnUse"
       id="clipPath1540"><path
         id="path1541"
         style="fill:#ff0000;fill-opacity:1;fill-rule:nonzero;stroke:none;stroke-width:0.264583"
         d="m 113.80494,66.363392 v 1.010791 c 0.0376,2.64e-4 0.0751,7.93e-4 0.11265,0.0021 0.03,0.0011 0.0603,0.0021 0.0904,0.0041 0.0101,2.64e-4 0.0199,7.94e-4 0.03,5.29e-4 0.012,-5.29e-4 0.0241,-0.0021 0.0362,-0.0026 0.0343,-0.0019 0.069,-0.0026 0.10336,-0.0036 0.0331,-0.0011 0.0661,-0.0013 0.0992,0.0011 0.0249,0.0013 0.0495,0.0032 0.0744,0.0052 0.006,5.29e-4 0.0123,0.0011 0.0186,0.0016 0.012,-0.0011 0.0242,-0.0019 0.0362,-0.0026 0.0442,-0.0021 0.0885,-0.0024 0.13281,-0.0026 0.007,-0.0011 0.0132,-0.0019 0.0196,-0.0026 0.0167,-0.0021 0.0333,-0.0041 0.0501,-0.0057 0.0142,-0.0013 0.0282,-0.0034 0.0424,-0.0041 0.0112,-5.29e-4 0.0224,-5.29e-4 0.0336,-5.29e-4 0.0107,2e-6 0.0213,-1.6e-5 0.032,0 0.009,1.8e-5 0.0189,-7.4e-5 0.0279,0 0.0136,1.14e-4 0.0272,7.94e-4 0.0408,0.0011 0.0122,2.65e-4 0.0245,2.44e-4 0.0367,5.29e-4 0.0492,-0.0027 0.0985,-0.0034 0.1478,-0.0016 0.0226,7.94e-4 0.0451,0.0021 0.0677,0.0031 0.0291,-2.01e-4 0.0583,-5.29e-4 0.0873,-0.0011 0.0295,-5.29e-4 0.0594,-0.0011 0.0889,-0.0021 0.022,-7.93e-4 0.0346,0.0083 0.0377,0.01913 0.008,0.0011 0.0155,0.0024 0.0233,0.0041 0.019,-2.64e-4 0.0379,-5.29e-4 0.0568,-5.29e-4 0.13434,1.43e-4 0.14417,0.126249 0.0289,0.144177 -0.0224,0.01373 -0.0568,0.01786 -0.0997,0.0031 -0.0213,5.29e-4 -0.0427,7.93e-4 -0.0641,0.0016 0.0216,0.0127 0.0406,0.02665 0.0574,0.04186 0.0482,-0.0013 0.0766,-0.0021 0.13177,-0.0041 0.0509,-0.0019 0.10216,-0.0028 0.15296,-0.0078 0.007,-7.94e-4 0.0131,-0.0019 0.0202,-0.0026 0.009,-0.0011 0.0174,-0.0016 0.0253,-0.0016 0.11915,7.93e-4 0.1214,0.129034 -0.0129,0.147277 -0.005,5.29e-4 -0.009,0.0011 -0.0134,0.0016 -0.0552,0.0054 -0.11048,0.0073 -0.16588,0.0093 -0.0212,7.94e-4 -0.0391,0.0016 -0.0553,0.0021 0.0106,0.06196 -0.005,0.126029 -0.0465,0.181385 -0.002,0.01736 -0.007,0.03432 -0.0129,0.05012 0.0847,0.02638 0.12203,0.04051 0.12816,0.05168 l 5.3e-4,5.29e-4 v 5.29e-4 l 5.3e-4,5.29e-4 c 1e-5,2.15e-4 0,0.0019 0,0.0021 v 5.29e-4 5.29e-4 5.3e-4 l -5.3e-4,5.29e-4 c -0.0162,0.02564 -0.2038,0.04709 -0.32195,0.204121 0.0436,0.02461 0.0517,0.0677 0.0269,0.100769 0.17018,0.09515 0.17027,0.29459 0,0.390157 0.38123,0.111085 0.33659,0.438605 0.0165,0.476456 -0.001,0.01797 -0.003,0.03648 -0.006,0.05581 -0.0621,0.445574 -0.11169,0.893058 -0.1478,1.341519 -0.005,0.06659 -0.0103,0.133353 -0.015,0.199988 0.0159,0.0045 0.0287,0.0094 0.0362,0.0155 0.0347,-7.94e-4 0.0697,-0.0013 0.10439,-0.0021 0.37966,-0.0071 0.46581,0.287869 0.25838,0.426331 0.0362,0.0011 0.0723,0.0019 0.10852,0.0031 0.45872,0.01513 0.44924,0.444322 0.046,0.490408 0.30341,0.103012 0.24474,0.469222 -0.17725,0.469222 h -0.0992 c 0.0813,0.138711 -0.0164,0.326948 -0.29404,0.345715 -0.005,0.03806 -0.0216,0.07403 -0.0496,0.104905 -5.3e-4,0.03315 0.001,0.0666 -0.002,0.09974 0.0153,0.0051 0.0297,0.0099 0.0424,0.01497 0.029,0.01156 0.0537,0.03028 0.0811,0.04548 0.21055,0.117467 0.049,0.137075 -0.12557,0.163814 -1.2e-4,0.01458 -5.3e-4,0.02883 -5.3e-4,0.04341 0.0636,0.01558 0.12677,0.03346 0.18914,0.05374 0.34931,0.113549 0.3337,0.387636 0.10594,0.463021 0.19753,0.04696 0.39357,0.09996 0.58652,0.163296 0.10546,0.03462 0.15984,0.06034 0.25425,0.101287 0.44729,0.194046 0.23345,0.628661 -0.21239,0.448035 0.0577,0.185444 -0.12779,0.357468 -0.43563,0.222208 -0.15208,-0.06685 -0.30575,-0.129379 -0.46044,-0.189653 0.0347,0.06513 0.0283,0.142573 -0.0279,0.210322 0.002,0.334076 0.005,0.668306 0.005,1.002525 -1.2e-4,0.123116 -0.0303,0.215059 -0.077,0.276468 0.14886,0.07066 0.29792,0.141145 0.447,0.211355 0.43006,0.202554 0.215,0.608372 -0.20412,0.448553 0.0109,0.09778 0.0205,0.195765 0.0248,0.29404 0.0116,0.232402 0.0281,0.464388 0.0429,0.696597 0.006,0.0931 0.0101,0.185963 0.016,0.279054 0.008,0.135001 0.0212,0.270383 0.0243,0.405659 5.3e-4,0.04143 -10e-4,0.08258 -10e-4,0.124023 -0.007,0.217572 -0.0165,0.436954 -0.061,0.650605 -0.01,0.03687 -0.0194,0.07546 -0.031,0.113173 0.21772,0.08562 0.27028,0.259292 0.19173,0.371552 0.1273,0.06163 0.18978,0.158784 0.18758,0.246499 0.39046,-0.0082 0.46886,0.435131 -0.0103,0.590661 -0.0358,0.01161 -0.0723,0.02013 -0.10904,0.02842 -0.0446,0.01177 -0.0902,0.01868 -0.13591,0.02429 -0.0287,0.0019 -0.0573,0.008 -0.0847,0.01344 -0.004,7.94e-4 -0.007,0.0019 -0.01,0.0026 -0.009,0.0019 -0.0184,0.0039 -0.0274,0.0057 -0.003,7.93e-4 -0.006,0.0013 -0.01,0.0021 h -5.2e-4 l -5.3e-4,0.0031 c -0.0152,0.0071 -0.0313,0.0136 -0.047,0.01963 h -5.3e-4 -5.3e-4 -10e-4 l -5.3e-4,5.29e-4 h -5.3e-4 v 0.0016 h -5.3e-4 -5.3e-4 -5.3e-4 c -2.6e-4,8.2e-5 -7.9e-4,7.93e-4 -0.002,0.0011 h -10e-4 -5.3e-4 c -2.5e-4,8.2e-5 -7.9e-4,2.51e-4 -0.002,5.29e-4 h -5.3e-4 v 5.29e-4 c -0.0166,0.0062 -0.0144,0.0053 -0.0238,0.0083 0.0151,-2.64e-4 0.0302,-0.0011 0.0455,-0.0016 0.0251,-7.94e-4 0.0505,-0.0019 0.0754,-0.0057 0.0446,-0.0057 0.0888,-0.01262 0.13333,-0.01913 0.0384,-0.0046 0.077,-0.0087 0.11576,-0.0067 0.0885,0.0046 0.092,0.07947 0.0248,0.0987 0.015,0.0092 0.0291,0.01744 0.0326,0.02429 l 5.3e-4,5.29e-4 v 5.29e-4 5.3e-4 5.29e-4 l 5.3e-4,5.29e-4 v 5.29e-4 l -5.3e-4,5.29e-4 v 5.29e-4 5.3e-4 l -5.3e-4,5.29e-4 v 5.29e-4 l -5.3e-4,5.29e-4 c -0.004,0.003 -0.013,0.0064 -0.0264,0.0083 -0.0337,0.0047 -0.0679,0.0056 -0.1018,0.0072 -0.0416,0.0019 -0.0825,0.0057 -0.12403,0.0083 -0.0495,0.0024 -0.0993,0.0026 -0.14882,0.0031 -0.0485,5.29e-4 -0.0967,7.94e-4 -0.14521,5.29e-4 -0.0527,-5.29e-4 -0.10543,-0.0011 -0.15814,-0.0021 -2.6e-4,2.9e-5 -7.9e-4,-2.9e-5 -0.001,0 -1.8e-4,-6e-6 -2.7e-4,5e-6 -5.3e-4,0 -0.003,2.64e-4 -0.006,7.94e-4 -0.009,0.0011 -0.0241,0.0039 -0.0481,0.0069 -0.0724,0.0093 -0.0353,0.0038 -0.0706,0.0071 -0.10594,0.01035 -0.0385,0.0035 -0.0767,0.0075 -0.11523,0.01085 -0.0532,0.0047 -0.1068,0.0089 -0.1602,0.01138 -0.0459,0.0021 -0.092,0.005 -0.13798,0.0031 -0.0291,-0.0011 -0.0578,-0.0038 -0.0868,-0.0062 -0.031,-0.0019 -0.0616,-0.0033 -0.0925,-0.0062 -0.0241,-0.0016 -0.0479,-0.0047 -0.0718,-0.0088 -0.015,-0.0024 -0.0301,-0.0047 -0.045,-0.0078 v 0.988055 h 9.66091 v -15.053 z m -0.0315,13.452925 c 0.002,2.7e-5 0.005,3e-6 0.007,0 -0.002,1.19e-4 -0.004,9.8e-5 -0.007,0 z m 0.077,0.599445 c 10e-4,2.12e-4 0.003,2.65e-4 0.004,5.3e-4 0.01,0.0016 0.0195,0.0027 0.0294,0.0036 -0.01,-0.0016 -0.0193,-0.0027 -0.0289,-0.0041 -0.002,-1.3e-5 -0.003,8e-6 -0.005,0 z m 0.42116,0.01291 c -0.006,0.0013 -0.0109,0.0029 -0.0165,0.0041 0.0229,-0.0011 0.0453,-0.0024 0.0682,-0.0041 -0.0159,1.11e-4 -0.0317,-7.7e-5 -0.0475,0 -8e-4,3e-6 -0.002,0 -0.004,0 z" /></clipPath><clipPath
       clipPathUnits="userSpaceOnUse"
       id="clipPath1543"><path
         id="path1544"
         style="fill:#ff0000;fill-opacity:1;fill-rule:nonzero;stroke:none;stroke-width:0.264583"
         d="M 1.0753866,17.455265 V 114.95526 H 130.77961 V 17.455265 Z m 113.6070234,49.908583 5.3e-4,5.29e-4 h 0.002 c 0.0107,3e-6 0.0214,-1.6e-5 0.032,0 0.009,1.9e-5 0.0189,-7.4e-5 0.0279,0 0.0136,1.14e-4 0.0272,7.94e-4 0.0408,0.0011 0.0115,2.65e-4 0.0227,2.44e-4 0.0341,5.3e-4 0.05,-0.0029 0.10024,-0.0034 0.15038,-0.0016 h 5.3e-4 c 0.0227,7.94e-4 0.0454,0.0021 0.0682,0.0031 0.0288,-2.04e-4 0.0576,-7.94e-4 0.0863,-0.0011 0.0295,-5.29e-4 0.0594,-0.0011 0.0889,-0.0021 0.0219,-7.94e-4 0.0346,0.0084 0.0377,0.01913 0.008,0.0011 0.0155,0.0024 0.0233,0.0041 0.019,-2.65e-4 0.0379,-5.3e-4 0.0568,-5.3e-4 0.13433,1.43e-4 0.14419,0.126257 0.0289,0.144177 -0.0224,0.01373 -0.0568,0.01786 -0.0997,0.0031 -0.0215,5.29e-4 -0.0431,7.94e-4 -0.0646,0.0016 0.0216,0.01267 0.0408,0.02665 0.0574,0.04186 0.0484,-0.0013 0.077,-0.0021 0.13229,-0.0041 0.0509,-0.0019 0.10216,-0.0028 0.15296,-0.0078 0.007,-7.93e-4 0.013,-0.0019 0.0202,-0.0026 0.009,-0.0011 0.0174,-0.0016 0.0253,-0.0016 0.11915,7.94e-4 0.12141,0.129035 -0.0129,0.147278 -0.005,5.29e-4 -0.009,0.0011 -0.0134,0.0016 -0.0552,0.0054 -0.11048,0.0073 -0.16588,0.0093 -0.0214,7.94e-4 -0.039,0.0016 -0.0553,0.0021 0.0107,0.06194 -0.005,0.126008 -0.047,0.181385 -0.002,0.01744 -0.007,0.03423 -0.0129,0.05013 0.0847,0.02638 0.12203,0.04053 0.12816,0.05167 l 5.3e-4,5.29e-4 v 5.3e-4 l 5.3e-4,5.29e-4 c 1e-5,2.09e-4 0,0.0019 0,0.0021 v 5.3e-4 5.29e-4 5.29e-4 5.29e-4 5.29e-4 5.3e-4 h -5.3e-4 v 0.0031 c -0.0224,0.02871 -0.25846,0.0534 -0.36536,0.273886 0.2378,0.07454 0.2601,0.31287 0.0698,0.420129 0.38132,0.111078 0.33536,0.438632 0.0181,0.476457 -0.001,0.01797 -0.003,0.0365 -0.006,0.05581 -0.0621,0.445574 -0.11173,0.893061 -0.14779,1.34152 -0.005,0.06656 -0.0107,0.133384 -0.0155,0.199988 0.0158,0.0044 0.0274,0.0089 0.0346,0.01498 0.035,-7.94e-4 0.0704,-0.0024 0.10542,-0.0031 0.37972,-0.0071 0.46537,0.287377 0.25786,0.425815 0.0363,0.0011 0.0722,0.0019 0.10852,0.0031 0.45875,0.01513 0.4495,0.444357 0.046,0.490408 0.30324,0.103095 0.24475,0.469738 -0.17725,0.469738 h -0.10077 c 0.0812,0.138634 -0.0167,0.326779 -0.29404,0.345716 -0.005,0.03917 -0.0231,0.07604 -0.0527,0.107487 l -0.002,0.0956 c 0.0162,0.0054 0.0311,0.01074 0.0444,0.01603 0.029,0.01156 0.0528,0.03027 0.0801,0.04547 0.21152,0.118012 0.0473,0.136882 -0.12816,0.163817 -9e-5,0.01437 -5.3e-4,0.02854 -5.3e-4,0.04289 0.0644,0.01574 0.12854,0.03372 0.19172,0.05426 0.34916,0.113495 0.33394,0.387477 0.10645,0.463021 0.19765,0.04697 0.3935,0.09994 0.58653,0.163298 0.10543,0.03462 0.15981,0.06034 0.25424,0.101285 0.44723,0.194032 0.2339,0.628526 -0.21187,0.448035 0.0576,0.185404 -0.1279,0.357444 -0.43563,0.22221 -0.15188,-0.06674 -0.30546,-0.129487 -0.45992,-0.189653 0.0354,0.06682 0.0273,0.147142 -0.0331,0.216006 0.002,0.332247 0.005,0.664405 0.005,0.996838 -1.3e-4,0.122084 -0.0314,0.214032 -0.0775,0.275437 0.1499,0.07117 0.30049,0.141684 0.45062,0.212389 0.42999,0.202512 0.21434,0.608655 -0.20464,0.449069 0.0109,0.09772 0.0205,0.195313 0.0248,0.293521 0.0116,0.232402 0.0286,0.464391 0.0434,0.696598 0.006,0.0931 0.01,0.185954 0.0155,0.279053 0.008,0.134993 0.0199,0.270386 0.0232,0.405662 5.3e-4,0.04143 -5.3e-4,0.08258 -5.3e-4,0.124023 -0.007,0.217557 -0.017,0.436954 -0.0615,0.650606 -0.01,0.03693 -0.0189,0.0754 -0.0305,0.11317 0.21767,0.08567 0.27041,0.259339 0.19172,0.371554 0.12727,0.06163 0.1903,0.158269 0.1881,0.245981 0.39419,-0.01156 0.47954,0.434564 -0.006,0.590661 -0.0358,0.01162 -0.0723,0.02013 -0.10904,0.02842 -0.0446,0.01177 -0.0902,0.01868 -0.13591,0.02429 -0.0287,0.0019 -0.0568,0.008 -0.0847,0.01344 -0.004,7.94e-4 -0.007,0.0024 -0.01,0.0031 -0.009,0.0019 -0.0184,0.0044 -0.0274,0.0062 -0.003,7.93e-4 -0.007,0.0019 -0.0124,0.0026 h -5.3e-4 l -0.001,0.0031 c -0.0152,0.0071 -0.0303,0.0131 -0.046,0.01913 h -0.001 -5.3e-4 v 0.0031 h -5.3e-4 -5.3e-4 -10e-4 v 0.0016 h -5.3e-4 -5.3e-4 -5.3e-4 l -10e-4,5.29e-4 h -5.3e-4 -5.3e-4 -5.3e-4 -5.3e-4 -0.001 v 5.29e-4 h -5.3e-4 v 5.29e-4 c -0.005,0.0016 -0.008,0.0033 -0.0103,0.0041 0.0112,-2.46e-4 0.0224,-7.94e-4 0.0336,-0.0011 0.0251,-7.93e-4 0.0505,-0.0019 0.0754,-0.0057 0.0446,-0.0057 0.0888,-0.01262 0.13333,-0.01913 0.0384,-0.0046 0.077,-0.0087 0.11576,-0.0067 0.0885,0.0046 0.0915,0.07949 0.0243,0.0987 0.0151,0.0093 0.0296,0.01741 0.0331,0.02429 l 5.3e-4,5.29e-4 v 5.29e-4 5.29e-4 5.29e-4 l 5.3e-4,5.29e-4 v 5.3e-4 l -5.3e-4,5.29e-4 v 5.29e-4 5.29e-4 l -5.3e-4,5.29e-4 v 5.29e-4 l -5.3e-4,5.3e-4 c -0.004,0.003 -0.013,0.0064 -0.0264,0.0083 -0.0337,0.0047 -0.0679,0.0056 -0.1018,0.0072 -0.0416,0.0019 -0.0825,0.0057 -0.12402,0.0083 -0.0495,0.0024 -0.0993,0.0026 -0.14883,0.0031 -0.0485,5.29e-4 -0.0967,7.94e-4 -0.14521,5.29e-4 -0.0428,-2.65e-4 -0.0859,-7.94e-4 -0.12867,-0.0016 -0.003,5.3e-4 -0.006,0.0011 -0.009,0.0016 -0.0354,0.0064 -0.0707,0.01251 -0.10645,0.01603 -0.0352,0.0038 -0.0706,0.0076 -0.10594,0.01085 -0.0385,0.0035 -0.0767,0.007 -0.11524,0.01035 -0.0532,0.0047 -0.10679,0.0094 -0.16019,0.01188 -0.0459,0.0021 -0.092,0.005 -0.13798,0.0031 -0.0291,-0.0011 -0.0573,-0.0038 -0.0863,-0.0062 -0.031,-0.0019 -0.0621,-0.0033 -0.093,-0.0062 l -5.3e-4,-5.29e-4 h -5.3e-4 -5.3e-4 -5.3e-4 v -0.0011 h -5.3e-4 -5.3e-4 -5.3e-4 l -5.2e-4,-5.29e-4 c -0.001,-5.29e-4 -0.003,-0.0021 -0.004,-0.0026 h -5.3e-4 l -5.3e-4,-5.29e-4 c -5.3e-4,-4.2e-5 -2.6e-4,3.4e-5 -0.002,0 -0.003,3e-6 -0.005,-0.0016 -0.008,-0.0021 h -5.3e-4 c -0.0155,-0.0013 -0.031,-0.0029 -0.0465,-0.0052 h -5.3e-4 -0.001 -5.3e-4 -5.3e-4 -5.2e-4 -5.3e-4 l -5.3e-4,-5.29e-4 h -5.3e-4 -0.001 -5.3e-4 -5.3e-4 -5.3e-4 v -5.29e-4 h -0.001 -5.3e-4 -5.2e-4 c -0.0169,-0.0027 -0.0337,-0.0056 -0.0507,-0.0088 -0.0136,-0.0024 -0.0266,-0.0047 -0.0403,-0.0062 -0.005,-7.93e-4 -0.01,-0.0032 -0.0124,-0.0057 l -5.3e-4,-5.29e-4 -5.3e-4,-5.3e-4 -5.3e-4,-5.29e-4 -5.3e-4,-5.29e-4 -5.3e-4,-5.29e-4 v -5.29e-4 -5.29e-4 l -5.3e-4,-5.3e-4 v -5.29e-4 -5.29e-4 -5.29e-4 -5.29e-4 -5.29e-4 -5.3e-4 -5.29e-4 -5.29e-4 l 5.3e-4,-5.29e-4 5.3e-4,-5.29e-4 5.3e-4,-5.29e-4 h 10e-4 l 5.3e-4,-5.3e-4 5.2e-4,-0.0016 5.3e-4,-5.29e-4 c -0.007,-0.0016 -0.0142,-0.0037 -0.0201,-0.0062 -0.001,-1.64e-4 -0.003,-5.29e-4 -0.004,-5.29e-4 -0.0319,-0.0029 -0.0626,-0.01087 -0.093,-0.02066 -0.22593,-0.07287 -0.14182,-0.152974 -0.002,-0.233061 -0.0568,-0.01019 -0.11389,-0.02101 -0.17054,-0.03152 -0.01,-0.0019 -0.0182,-0.0053 -0.0253,-0.0088 -0.3053,-0.0906 -0.30249,-0.453059 0.0765,-0.548288 -0.43874,-0.07778 -0.39547,-0.503293 0.005,-0.495575 0.0271,5.29e-4 0.0555,0.0039 0.0858,0.0088 h 5.3e-4 5.3e-4 0.001 5.3e-4 c -0.0122,-0.07591 -0.0195,-0.152609 -0.0279,-0.22841 -0.0213,-0.191487 -0.0212,-0.199427 -0.0393,-0.397909 -0.0308,-0.352798 -0.0508,-0.706575 -0.0646,-1.0604 -0.009,-0.241723 -0.0148,-0.483685 -0.0108,-0.725538 0.003,-0.205454 0.023,-0.409998 0.0465,-0.613915 0.0149,-0.118467 0.0322,-0.236382 0.0522,-0.353984 -0.0868,-0.04374 -0.17393,-0.08748 -0.26097,-0.130741 -0.33764,-0.167833 -0.28586,-0.468984 -0.0434,-0.500745 -0.0853,-0.03897 -0.17065,-0.07758 -0.25631,-0.115755 -0.30415,-0.135583 -0.30917,-0.387488 -0.14108,-0.473356 0.001,-0.01103 0.004,-0.02193 0.007,-0.03256 -0.45294,-0.01945 -0.44538,-0.490505 0.0341,-0.495575 0.26561,-0.0028 0.12715,-0.0019 0.41548,0.0031 0.0207,0.0011 0.0408,0.0021 0.0615,0.0031 -0.0155,-0.0904 0.0352,-0.185375 0.14935,-0.236162 -0.009,-0.0283 -0.0169,-0.05971 -0.0212,-0.09405 -0.0887,-0.007 -0.17746,-0.01344 -0.26613,-0.02016 -0.38073,-0.02881 -0.44294,-0.333507 -0.22169,-0.45062 -0.0543,-0.08208 -0.0469,-0.180895 0.0212,-0.251663 -0.30765,-0.07851 -0.33152,-0.350499 -0.12195,-0.448035 -0.0501,-0.0097 -0.0937,-0.02392 -0.13074,-0.04186 -0.0489,-0.0021 -0.11203,-0.0055 -0.19844,-0.0093 -0.49067,-0.02146 -0.46929,-0.516554 0.0217,-0.495062 0.40799,0.01786 0.31174,0.01225 0.54932,0.02429 0.005,-0.08401 0.0654,-0.166328 0.18294,-0.208772 -0.21576,-0.0612 -0.25994,-0.262038 -0.11938,-0.38344 -0.0849,-0.02697 -0.14142,-0.07644 -0.16898,-0.133326 -0.26717,0.04284 -0.15251,0.02302 -0.56172,0.09922 -0.48275,0.08991 -0.57282,-0.397563 -0.0894,-0.487307 0.0424,-0.0079 0.0792,-0.01413 0.11162,-0.02016 -0.002,-0.122383 0.11558,-0.24847 0.3576,-0.258898 0.19604,-0.0085 0.39191,-0.01323 0.58808,-0.01654 -0.002,-0.17839 0.002,-0.357238 0.0124,-0.535369 -0.0385,-0.0039 -0.0725,-0.0163 -0.10077,-0.03462 -0.23032,0.05194 -0.3723,-0.0474 -0.39015,-0.172598 -0.21324,-0.08143 -0.20457,-0.372438 0.14572,-0.479558 0.1332,-0.04072 0.26551,-0.08201 0.39791,-0.125058 h 5.3e-4 v -0.0026 -0.0031 l -5.3e-4,-5.29e-4 v -5.29e-4 -5.29e-4 -5.3e-4 h 5.3e-4 l 5.3e-4,-0.0011 v -5.29e-4 -0.0016 l 5.3e-4,-5.29e-4 c -0.02,-0.01487 -0.0359,-0.03171 -0.0491,-0.04961 -0.33545,-0.08951 -0.30255,-0.448678 0.0615,-0.476457 0.005,-5.29e-4 0.01,-0.0013 0.0155,-0.0016 -0.0168,-0.08653 0.0273,-0.182938 0.13849,-0.245462 -0.40714,0.0066 -0.52378,-0.300125 -0.3297,-0.472324 -0.14178,-0.162986 -0.0379,-0.422592 0.31885,-0.450617 0.009,-0.0034 0.0194,-0.0065 0.0279,-0.0098 0.0173,-0.0067 0.0351,-0.01355 0.0527,-0.01963 -0.0112,2.22e-4 -0.023,0.0011 -0.0341,0.0021 -0.008,7.94e-4 -0.0168,0.0021 -0.0248,0.0041 -0.0593,0.01595 -0.0747,-0.04605 -0.015,-0.06046 0.0106,-0.0026 0.0201,-0.0043 0.031,-0.0052 0.0252,-0.0024 0.0516,-0.0031 0.077,-0.0031 l 0.0114,-0.0011 h 5.3e-4 c 0.0389,2.65e-4 0.0779,7.94e-4 0.11678,0.0021 0.03,0.0011 0.0603,0.0021 0.0904,0.0041 0.0101,2.64e-4 0.0199,7.93e-4 0.03,5.29e-4 0.012,-5.29e-4 0.0241,-0.0026 0.0362,-0.0031 0.0343,-0.0019 0.069,-0.0021 0.10336,-0.0031 0.0331,-0.0011 0.0661,-0.0013 0.0992,0.0011 0.0249,0.0013 0.0495,0.0032 0.0744,0.0052 0.006,5.29e-4 0.0123,0.0011 0.0186,0.0016 0.012,-0.0011 0.0242,-0.0019 0.0362,-0.0026 0.0445,-0.0021 0.0892,-0.0024 0.13384,-0.0026 0.006,-7.94e-4 0.0121,-0.0019 0.0181,-0.0026 0.0167,-0.0021 0.0333,-0.0041 0.0501,-0.0057 0.0142,-0.0013 0.0282,-0.0034 0.0424,-0.0041 0.0112,-5.29e-4 0.0224,-5.29e-4 0.0336,-5.29e-4 z m 0.33848,11.591539 c -10e-6,7.93e-4 -3e-5,0.0019 0,0.0026 h 5.3e-4 c 2e-5,-5.3e-4 -1e-5,-0.0011 0,-0.0016 v -5.29e-4 z m -0.26975,0.787548 c -0.002,0.0039 -0.003,0.008 -0.005,0.01188 0.002,-2.65e-4 0.003,-7.94e-4 0.005,-0.0011 l 5.3e-4,-5.29e-4 h 5.3e-4 5.3e-4 5.3e-4 5.3e-4 5.3e-4 5.3e-4 5.2e-4 v -5.29e-4 h 5.3e-4 5.3e-4 l 5.3e-4,-5.29e-4 h 5.3e-4 c 0.005,-0.0021 0.0107,-0.0042 0.016,-0.0062 -0.007,-0.0011 -0.0138,-0.0021 -0.0207,-0.0031 z m -0.97772,0.07338 c 0.002,2.7e-5 0.005,3e-6 0.007,0 -0.002,1.19e-4 -0.004,9.8e-5 -0.007,0 z m 0.49867,0.612365 c -0.006,0.0013 -0.0116,0.0028 -0.017,0.0041 0.0218,-0.0011 0.0435,-0.0024 0.0651,-0.0041 -0.0148,9.8e-5 -0.0297,-7.1e-5 -0.0444,0 -0.001,3e-6 -0.002,0 -0.003,0 z" /></clipPath><clipPath
       clipPathUnits="userSpaceOnUse"
       id="clipPath1546"><path
         id="path1547"
         style="fill:#ff0000;fill-opacity:1;fill-rule:nonzero;stroke:none;stroke-width:0.264583"
         d="M 75.137015,20.211686 V 112.25775 H 128.0821 V 20.211686 Z m 39.545395,47.152162 5.3e-4,5.29e-4 h 0.002 c 0.0107,3e-6 0.0214,-1.6e-5 0.032,0 0.009,1.9e-5 0.0189,-7.4e-5 0.0279,0 0.0136,1.14e-4 0.0272,7.94e-4 0.0408,0.0011 0.0115,2.65e-4 0.0227,2.44e-4 0.0341,5.3e-4 0.05,-0.0029 0.10024,-0.0034 0.15038,-0.0016 h 5.3e-4 c 0.0227,7.94e-4 0.0454,0.0021 0.0682,0.0031 0.0288,-2.04e-4 0.0576,-7.94e-4 0.0863,-0.0011 0.0295,-5.29e-4 0.0594,-0.0011 0.0889,-0.0021 0.0219,-7.94e-4 0.0346,0.0084 0.0377,0.01913 0.008,0.0011 0.0155,0.0024 0.0233,0.0041 0.019,-2.65e-4 0.0379,-5.3e-4 0.0568,-5.3e-4 0.13433,1.43e-4 0.14419,0.126257 0.0289,0.144177 -0.0224,0.01373 -0.0568,0.01786 -0.0997,0.0031 -0.0215,5.29e-4 -0.0431,7.94e-4 -0.0646,0.0016 0.0216,0.01267 0.0408,0.02665 0.0574,0.04186 0.0484,-0.0013 0.077,-0.0021 0.13229,-0.0041 0.0509,-0.0019 0.10216,-0.0028 0.15296,-0.0078 0.007,-7.93e-4 0.013,-0.0019 0.0202,-0.0026 0.009,-0.0011 0.0174,-0.0016 0.0253,-0.0016 0.11915,7.94e-4 0.12141,0.129035 -0.0129,0.147278 -0.005,5.29e-4 -0.009,0.0011 -0.0134,0.0016 -0.0552,0.0054 -0.11048,0.0073 -0.16588,0.0093 -0.0214,7.94e-4 -0.039,0.0016 -0.0553,0.0021 0.0107,0.06194 -0.005,0.126008 -0.047,0.181385 -0.002,0.01744 -0.007,0.03423 -0.0129,0.05013 0.0847,0.02638 0.12203,0.04053 0.12816,0.05167 l 5.3e-4,5.29e-4 v 5.3e-4 l 5.3e-4,5.29e-4 c 1e-5,2.09e-4 0,0.0019 0,0.0021 v 5.3e-4 5.29e-4 5.29e-4 5.29e-4 5.29e-4 5.3e-4 h -5.3e-4 v 0.0031 c -0.0224,0.02871 -0.25846,0.0534 -0.36536,0.273886 0.2378,0.07454 0.2601,0.31287 0.0698,0.420129 0.38132,0.111078 0.33536,0.438632 0.0181,0.476457 -0.001,0.01797 -0.003,0.0365 -0.006,0.05581 -0.0621,0.445574 -0.11173,0.893061 -0.14779,1.34152 -0.005,0.06656 -0.0107,0.133384 -0.0155,0.199988 0.0158,0.0044 0.0274,0.0089 0.0346,0.01498 0.035,-7.94e-4 0.0704,-0.0024 0.10542,-0.0031 0.37972,-0.0071 0.46537,0.287377 0.25786,0.425815 0.0363,0.0011 0.0722,0.0019 0.10852,0.0031 0.45875,0.01513 0.4495,0.444357 0.046,0.490408 0.30324,0.103095 0.24475,0.469738 -0.17725,0.469738 h -0.10077 c 0.0812,0.138634 -0.0167,0.326779 -0.29404,0.345716 -0.005,0.03917 -0.0231,0.07604 -0.0527,0.107487 l -0.002,0.0956 c 0.0162,0.0054 0.0311,0.01074 0.0444,0.01603 0.029,0.01156 0.0528,0.03027 0.0801,0.04547 0.21152,0.118012 0.0473,0.136882 -0.12816,0.163817 -9e-5,0.01437 -5.3e-4,0.02854 -5.3e-4,0.04289 0.0644,0.01574 0.12854,0.03372 0.19172,0.05426 0.34916,0.113495 0.33394,0.387477 0.10645,0.463021 0.19765,0.04697 0.3935,0.09994 0.58653,0.163298 0.10543,0.03462 0.15981,0.06034 0.25424,0.101285 0.44723,0.194032 0.2339,0.628526 -0.21187,0.448035 0.0576,0.185404 -0.1279,0.357444 -0.43563,0.22221 -0.15188,-0.06674 -0.30546,-0.129487 -0.45992,-0.189653 0.0354,0.06682 0.0273,0.147142 -0.0331,0.216006 0.002,0.332247 0.005,0.664405 0.005,0.996838 -1.3e-4,0.122084 -0.0314,0.214032 -0.0775,0.275437 0.1499,0.07117 0.30049,0.141684 0.45062,0.212389 0.42999,0.202512 0.21434,0.608655 -0.20464,0.449069 0.0109,0.09772 0.0205,0.195313 0.0248,0.293521 0.0116,0.232402 0.0286,0.464391 0.0434,0.696598 0.006,0.0931 0.01,0.185954 0.0155,0.279053 0.008,0.134993 0.0199,0.270386 0.0232,0.405662 5.3e-4,0.04143 -5.3e-4,0.08258 -5.3e-4,0.124023 -0.007,0.217557 -0.017,0.436954 -0.0615,0.650606 -0.01,0.03693 -0.0189,0.0754 -0.0305,0.11317 0.21767,0.08567 0.27041,0.259339 0.19172,0.371554 0.12727,0.06163 0.1903,0.158269 0.1881,0.245981 0.39419,-0.01156 0.47954,0.434564 -0.006,0.590661 -0.0358,0.01162 -0.0723,0.02013 -0.10904,0.02842 -0.0446,0.01177 -0.0902,0.01868 -0.13591,0.02429 -0.0287,0.0019 -0.0568,0.008 -0.0847,0.01344 -0.004,7.94e-4 -0.007,0.0024 -0.01,0.0031 -0.009,0.0019 -0.0184,0.0044 -0.0274,0.0062 -0.003,7.93e-4 -0.007,0.0019 -0.0124,0.0026 h -5.3e-4 l -0.001,0.0031 c -0.0152,0.0071 -0.0303,0.0131 -0.046,0.01913 h -0.001 -5.3e-4 v 0.0031 h -5.3e-4 -5.3e-4 -10e-4 v 0.0016 h -5.3e-4 -5.3e-4 -5.3e-4 l -10e-4,5.29e-4 h -5.3e-4 -5.3e-4 -5.3e-4 -5.3e-4 -0.001 v 5.29e-4 h -5.3e-4 v 5.29e-4 c -0.005,0.0016 -0.008,0.0033 -0.0103,0.0041 0.0112,-2.46e-4 0.0224,-7.94e-4 0.0336,-0.0011 0.0251,-7.93e-4 0.0505,-0.0019 0.0754,-0.0057 0.0446,-0.0057 0.0888,-0.01262 0.13333,-0.01913 0.0384,-0.0046 0.077,-0.0087 0.11576,-0.0067 0.0885,0.0046 0.0915,0.07949 0.0243,0.0987 0.0151,0.0093 0.0296,0.01741 0.0331,0.02429 l 5.3e-4,5.29e-4 v 5.29e-4 5.29e-4 5.29e-4 l 5.3e-4,5.29e-4 v 5.3e-4 l -5.3e-4,5.29e-4 v 5.29e-4 5.29e-4 l -5.3e-4,5.29e-4 v 5.29e-4 l -5.3e-4,5.3e-4 c -0.004,0.003 -0.013,0.0064 -0.0264,0.0083 -0.0337,0.0047 -0.0679,0.0056 -0.1018,0.0072 -0.0416,0.0019 -0.0825,0.0057 -0.12402,0.0083 -0.0495,0.0024 -0.0993,0.0026 -0.14883,0.0031 -0.0485,5.29e-4 -0.0967,7.94e-4 -0.14521,5.29e-4 -0.0428,-2.65e-4 -0.0859,-7.94e-4 -0.12867,-0.0016 -0.003,5.3e-4 -0.006,0.0011 -0.009,0.0016 -0.0354,0.0064 -0.0707,0.01251 -0.10645,0.01603 -0.0352,0.0038 -0.0706,0.0076 -0.10594,0.01085 -0.0385,0.0035 -0.0767,0.007 -0.11524,0.01035 -0.0532,0.0047 -0.10679,0.0094 -0.16019,0.01188 -0.0459,0.0021 -0.092,0.005 -0.13798,0.0031 -0.0291,-0.0011 -0.0573,-0.0038 -0.0863,-0.0062 -0.031,-0.0019 -0.0621,-0.0033 -0.093,-0.0062 l -5.3e-4,-5.29e-4 h -5.3e-4 -5.3e-4 -5.3e-4 v -0.0011 h -5.3e-4 -5.3e-4 -5.3e-4 l -5.2e-4,-5.29e-4 c -0.001,-5.29e-4 -0.003,-0.0021 -0.004,-0.0026 h -5.3e-4 l -5.3e-4,-5.29e-4 c -5.3e-4,-4.2e-5 -2.6e-4,3.4e-5 -0.002,0 -0.003,3e-6 -0.005,-0.0016 -0.008,-0.0021 h -5.3e-4 c -0.0155,-0.0013 -0.031,-0.0029 -0.0465,-0.0052 h -5.3e-4 -0.001 -5.3e-4 -5.3e-4 -5.2e-4 -5.3e-4 l -5.3e-4,-5.29e-4 h -5.3e-4 -0.001 -5.3e-4 -5.3e-4 -5.3e-4 v -5.29e-4 h -0.001 -5.3e-4 -5.2e-4 c -0.0169,-0.0027 -0.0337,-0.0056 -0.0507,-0.0088 -0.0136,-0.0024 -0.0266,-0.0047 -0.0403,-0.0062 -0.005,-7.93e-4 -0.01,-0.0032 -0.0124,-0.0057 l -5.3e-4,-5.29e-4 -5.3e-4,-5.3e-4 -5.3e-4,-5.29e-4 -5.3e-4,-5.29e-4 -5.3e-4,-5.29e-4 v -5.29e-4 -5.29e-4 l -5.3e-4,-5.3e-4 v -5.29e-4 -5.29e-4 -5.29e-4 -5.29e-4 -5.29e-4 -5.3e-4 -5.29e-4 -5.29e-4 l 5.3e-4,-5.29e-4 5.3e-4,-5.29e-4 5.3e-4,-5.29e-4 h 10e-4 l 5.3e-4,-5.3e-4 5.2e-4,-0.0016 5.3e-4,-5.29e-4 c -0.007,-0.0016 -0.0142,-0.0037 -0.0201,-0.0062 -0.001,-1.64e-4 -0.003,-5.29e-4 -0.004,-5.29e-4 -0.0319,-0.0029 -0.0626,-0.01087 -0.093,-0.02066 -0.22593,-0.07287 -0.14182,-0.152974 -0.002,-0.233061 -0.0568,-0.01019 -0.11389,-0.02101 -0.17054,-0.03152 -0.01,-0.0019 -0.0182,-0.0053 -0.0253,-0.0088 -0.3053,-0.0906 -0.30249,-0.453059 0.0765,-0.548288 -0.43874,-0.07778 -0.39547,-0.503293 0.005,-0.495575 0.0271,5.29e-4 0.0555,0.0039 0.0858,0.0088 h 5.3e-4 5.3e-4 0.001 5.3e-4 c -0.0122,-0.07591 -0.0195,-0.152609 -0.0279,-0.22841 -0.0213,-0.191487 -0.0212,-0.199427 -0.0393,-0.397909 -0.0308,-0.352798 -0.0508,-0.706575 -0.0646,-1.0604 -0.009,-0.241723 -0.0148,-0.483685 -0.0108,-0.725538 0.003,-0.205454 0.023,-0.409998 0.0465,-0.613915 0.0149,-0.118467 0.0322,-0.236382 0.0522,-0.353984 -0.0868,-0.04374 -0.17393,-0.08748 -0.26097,-0.130741 -0.33764,-0.167833 -0.28586,-0.468984 -0.0434,-0.500745 -0.0853,-0.03897 -0.17065,-0.07758 -0.25631,-0.115755 -0.30415,-0.135583 -0.30917,-0.387488 -0.14108,-0.473356 0.001,-0.01103 0.004,-0.02193 0.007,-0.03256 -0.45294,-0.01945 -0.44538,-0.490505 0.0341,-0.495575 0.26561,-0.0028 0.12715,-0.0019 0.41548,0.0031 0.0207,0.0011 0.0408,0.0021 0.0615,0.0031 -0.0155,-0.0904 0.0352,-0.185375 0.14935,-0.236162 -0.009,-0.0283 -0.0169,-0.05971 -0.0212,-0.09405 -0.0887,-0.007 -0.17746,-0.01344 -0.26613,-0.02016 -0.38073,-0.02881 -0.44294,-0.333507 -0.22169,-0.45062 -0.0543,-0.08208 -0.0469,-0.180895 0.0212,-0.251663 -0.30765,-0.07851 -0.33152,-0.350499 -0.12195,-0.448035 -0.0501,-0.0097 -0.0937,-0.02392 -0.13074,-0.04186 -0.0489,-0.0021 -0.11203,-0.0055 -0.19844,-0.0093 -0.49067,-0.02146 -0.46929,-0.516554 0.0217,-0.495062 0.40799,0.01786 0.31174,0.01225 0.54932,0.02429 0.005,-0.08401 0.0654,-0.166328 0.18294,-0.208772 -0.21576,-0.0612 -0.25994,-0.262038 -0.11938,-0.38344 -0.0849,-0.02697 -0.14142,-0.07644 -0.16898,-0.133326 -0.26717,0.04284 -0.15251,0.02302 -0.56172,0.09922 -0.48275,0.08991 -0.57282,-0.397563 -0.0894,-0.487307 0.0424,-0.0079 0.0792,-0.01413 0.11162,-0.02016 -0.002,-0.122383 0.11558,-0.24847 0.3576,-0.258898 0.19604,-0.0085 0.39191,-0.01323 0.58808,-0.01654 -0.002,-0.17839 0.002,-0.357238 0.0124,-0.535369 -0.0385,-0.0039 -0.0725,-0.0163 -0.10077,-0.03462 -0.23032,0.05194 -0.3723,-0.0474 -0.39015,-0.172598 -0.21324,-0.08143 -0.20457,-0.372438 0.14572,-0.479558 0.1332,-0.04072 0.26551,-0.08201 0.39791,-0.125058 h 5.3e-4 v -0.0026 -0.0031 l -5.3e-4,-5.29e-4 v -5.29e-4 -5.29e-4 -5.3e-4 h 5.3e-4 l 5.3e-4,-0.0011 v -5.29e-4 -0.0016 l 5.3e-4,-5.29e-4 c -0.02,-0.01487 -0.0359,-0.03171 -0.0491,-0.04961 -0.33545,-0.08951 -0.30255,-0.448678 0.0615,-0.476457 0.005,-5.29e-4 0.01,-0.0013 0.0155,-0.0016 -0.0168,-0.08653 0.0273,-0.182938 0.13849,-0.245462 -0.40714,0.0066 -0.52378,-0.300125 -0.3297,-0.472324 -0.14178,-0.162986 -0.0379,-0.422592 0.31885,-0.450617 0.009,-0.0034 0.0194,-0.0065 0.0279,-0.0098 0.0173,-0.0067 0.0351,-0.01355 0.0527,-0.01963 -0.0112,2.22e-4 -0.023,0.0011 -0.0341,0.0021 -0.008,7.94e-4 -0.0168,0.0021 -0.0248,0.0041 -0.0593,0.01595 -0.0747,-0.04605 -0.015,-0.06046 0.0106,-0.0026 0.0201,-0.0043 0.031,-0.0052 0.0252,-0.0024 0.0516,-0.0031 0.077,-0.0031 l 0.0114,-0.0011 h 5.3e-4 c 0.0389,2.65e-4 0.0779,7.94e-4 0.11678,0.0021 0.03,0.0011 0.0603,0.0021 0.0904,0.0041 0.0101,2.64e-4 0.0199,7.93e-4 0.03,5.29e-4 0.012,-5.29e-4 0.0241,-0.0026 0.0362,-0.0031 0.0343,-0.0019 0.069,-0.0021 0.10336,-0.0031 0.0331,-0.0011 0.0661,-0.0013 0.0992,0.0011 0.0249,0.0013 0.0495,0.0032 0.0744,0.0052 0.006,5.29e-4 0.0123,0.0011 0.0186,0.0016 0.012,-0.0011 0.0242,-0.0019 0.0362,-0.0026 0.0445,-0.0021 0.0892,-0.0024 0.13384,-0.0026 0.006,-7.94e-4 0.0121,-0.0019 0.0181,-0.0026 0.0167,-0.0021 0.0333,-0.0041 0.0501,-0.0057 0.0142,-0.0013 0.0282,-0.0034 0.0424,-0.0041 0.0112,-5.29e-4 0.0224,-5.29e-4 0.0336,-5.29e-4 z m 0.33848,11.591539 c -10e-6,7.93e-4 -3e-5,0.0019 0,0.0026 h 5.3e-4 c 2e-5,-5.3e-4 -1e-5,-0.0011 0,-0.0016 v -5.29e-4 z m -0.26975,0.787548 c -0.002,0.0039 -0.003,0.008 -0.005,0.01188 0.002,-2.65e-4 0.003,-7.94e-4 0.005,-0.0011 l 5.3e-4,-5.29e-4 h 5.3e-4 5.3e-4 5.3e-4 5.3e-4 5.3e-4 5.3e-4 5.2e-4 v -5.29e-4 h 5.3e-4 5.3e-4 l 5.3e-4,-5.29e-4 h 5.3e-4 c 0.005,-0.0021 0.0107,-0.0042 0.016,-0.0062 -0.007,-0.0011 -0.0138,-0.0021 -0.0207,-0.0031 z m -0.97772,0.07338 c 0.002,2.7e-5 0.005,3e-6 0.007,0 -0.002,1.19e-4 -0.004,9.8e-5 -0.007,0 z m 0.49867,0.612365 c -0.006,0.0013 -0.0116,0.0028 -0.017,0.0041 0.0218,-0.0011 0.0435,-0.0024 0.0651,-0.0041 -0.0148,9.8e-5 -0.0297,-7.1e-5 -0.0444,0 -0.001,3e-6 -0.002,0 -0.003,0 z" /></clipPath><filter
       style="color-interpolation-filters:sRGB"
       id="filter1"
       inkscape:label="filter1"><feFlood
         id="feFlood1" /><feComposite
         id="feComposite1"
         in2="SourceGraphic"
         operator="out" /></filter></defs><g
     inkscape:groupmode="layer"
     id="layer2"
     inkscape:label="Right"
     transform="matrix(-0.98517017,0,0,0.99194317,-12.566574,-4.3604775)"><rect
       style="fill:#ffffff;fill-opacity:0;stroke:#ffffff;stroke-width:1.5;stroke-linecap:square;stroke-linejoin:bevel;stroke-dasharray:none;stroke-dashoffset:0;stroke-opacity:1;paint-order:fill markers stroke"
       id="rect39"
       width="64.95787"
       height="11.57685"
       x="6.520277"
       y="23.26766"
       ry="0" /><rect
       style="fill:#ffffff;fill-opacity:0;stroke:#ffffff;stroke-width:1.5;stroke-linecap:square;stroke-linejoin:bevel;stroke-dasharray:none;stroke-dashoffset:0;stroke-opacity:1;paint-order:fill markers stroke"
       id="rect40"
       width="64.95787"
       height="11.57685"
       x="6.3711319"
       y="38.163319"
       ry="0" /><rect
       style="fill:#ffffff;fill-opacity:0;stroke:#ffffff;stroke-width:1.5;stroke-linecap:square;stroke-linejoin:bevel;stroke-dasharray:none;stroke-dashoffset:0;stroke-opacity:1;paint-order:fill markers stroke"
       id="rect41"
       width="64.95787"
       height="11.57685"
       x="6.3093538"
       y="53.120754"
       ry="0" /><rect
       style="fill:#ffffff;fill-opacity:0;stroke:#ffffff;stroke-width:1.5;stroke-linecap:square;stroke-linejoin:bevel;stroke-dasharray:none;stroke-dashoffset:0;stroke-opacity:1;paint-order:fill markers stroke"
       id="rect42"
       width="64.95787"
       height="11.57685"
       x="6.1165252"
       y="67.985527"
       ry="0" /><rect
       style="fill:#ffffff;fill-opacity:0;stroke:#ffffff;stroke-width:1.5;stroke-linecap:square;stroke-linejoin:bevel;stroke-dasharray:none;stroke-dashoffset:0;stroke-opacity:1;paint-order:fill markers stroke"
       id="rect43"
       width="64.95787"
       height="11.57685"
       x="6.0728416"
       y="82.775711"
       ry="0" /><rect
       style="fill:#ffffff;fill-opacity:0;stroke:#ffffff;stroke-width:1.5;stroke-linecap:square;stroke-linejoin:bevel;stroke-dasharray:none;stroke-dashoffset:0;stroke-opacity:1;paint-order:fill markers stroke"
       id="rect44"
       width="64.958"
       height="11.57685"
       x="6.3093538"
       y="97.494438"
       ry="0" /></g><g
     inkscape:groupmode="layer"
     id="layer4"
     inkscape:label="Fan"
     transform="matrix(-0.98517017,0,0,0.99194317,-12.566574,-4.3604775)"><g
       id="g1570"
       style="display:inline"
       transform="translate(-0.04677216,-0.1403165)"><ellipse
         style="display:inline;fill:#ffffff;fill-opacity:0;stroke:#ffffff;stroke-width:1;stroke-linecap:round;stroke-linejoin:round;stroke-dasharray:none;stroke-dashoffset:0;stroke-opacity:1;paint-order:fill markers stroke"
         id="path60"
         cx="114.07732"
         cy="73.900024"
         rx="6.9924388"
         ry="7.0337801"
         clip-path="url(#clipPath1537)"
         transform="translate(-1.3890625,-0.13229167)" /><rect
         style="display:inline;fill:none;fill-opacity:0;stroke:#ffffff;stroke-width:1;stroke-linecap:round;stroke-linejoin:round;stroke-dasharray:none;stroke-dashoffset:0;stroke-opacity:1;paint-order:fill markers stroke"
         id="rect80"
         width="8.658967"
         height="14.052438"
         x="114.30505"
         y="66.863411"
         clip-path="url(#clipPath1540)"
         transform="translate(-1.3890625,-0.13229167)" /><circle
         style="fill:#ffffff;fill-opacity:0;stroke:#ffffff;stroke-width:1;stroke-linecap:round;stroke-linejoin:round;stroke-dasharray:none;stroke-dashoffset:0;stroke-opacity:1;paint-order:fill markers stroke"
         id="path1550"
         cx="114.22932"
         cy="73.98188"
         r="1.8358076" /><path
         sodipodi:type="star"
         style="fill:#ffffff;fill-opacity:0;stroke:#ffffff;stroke-width:1;stroke-linecap:round;stroke-linejoin:round;stroke-dasharray:none;stroke-dashoffset:0;stroke-opacity:1;paint-order:fill markers stroke"
         id="path1552"
         inkscape:flatsided="false"
         sodipodi:sides="12"
         sodipodi:cx="114.10724"
         sodipodi:cy="73.898598"
         sodipodi:r1="5.0640459"
         sodipodi:r2="1.6988392"
         sodipodi:arg1="-2.5372871"
         sodipodi:arg2="-0.73213672"
         inkscape:rounded="0"
         inkscape:randomized="0"
         d="m 109.94005,71.021254 5.4307,1.741737 -3.43373,-3.43984 3.83225,4.223736 -1.25377,-4.695852 1.20696,5.573989 1.26212,-4.693614 -1.74173,5.430696 3.43984,-3.433727 -4.22374,3.832252 4.69585,-1.253774 -5.57399,1.206959 4.69362,1.262126 -5.4307,-1.741738 3.43373,3.439841 -3.83225,-4.223737 1.25377,4.695852 -1.20696,-5.573989 -1.26213,4.693614 1.74174,-5.430695 -3.43984,3.433726 4.22374,-3.832252 -4.69585,1.253774 5.57399,-1.206958 z"
         inkscape:transform-center-x="-0.094901586"
         inkscape:transform-center-y="0.48379254" /><rect
         style="display:inline;fill:#ffffff;fill-opacity:0;stroke:#ffffff;stroke-width:1.5;stroke-linecap:round;stroke-linejoin:round;stroke-dasharray:none;stroke-dashoffset:0;stroke-opacity:1;paint-order:fill markers stroke"
         id="rect34"
         width="22"
         height="22"
         x="102.94561"
         y="62.618725"
         clip-path="url(#clipPath1534)"
         transform="translate(0.04677216,0.1403165)" /></g></g><g
     inkscape:groupmode="layer"
     id="layer12"
     inkscape:label="CPU"
     transform="matrix(-0.98517017,0,0,0.99194317,-12.566574,-4.3604775)"><g
       id="g1580"><rect
         style="display:inline;fill:#ffffff;fill-opacity:0;stroke:#ffffff;stroke-width:1.5;stroke-linecap:round;stroke-linejoin:round;stroke-dasharray:none;stroke-dashoffset:0;stroke-opacity:1;paint-order:fill markers stroke"
         id="rect31"
         width="22"
         height="22"
         x="78.269287"
         y="87.384659" /><rect
         style="fill:#ffffff;fill-opacity:0;stroke:#ffffff;stroke-width:1;stroke-linecap:round;stroke-linejoin:bevel;stroke-dasharray:none;stroke-dashoffset:0;stroke-opacity:1;paint-order:stroke fill markers"
         id="rect1578"
         width="11.261"
         height="11.26131"
         x="83.657936"
         y="92.852219" /><rect
         style="fill:#ffffff;fill-opacity:1;stroke:#ffffff;stroke-width:3;stroke-linecap:round;stroke-linejoin:bevel;stroke-dasharray:none;stroke-dashoffset:0;stroke-opacity:1;paint-order:stroke fill markers"
         id="rect1579"
         width="6.1591992"
         height="6.1653786"
         x="86.180901"
         y="95.381371" /></g></g><g
     inkscape:groupmode="layer"
     id="layer13"
     inkscape:label="GPU"
     transform="matrix(-0.98517017,0,0,0.99194317,-12.566574,-4.3604775)"><g
       id="g1584"><rect
         style="display:inline;fill:#ffffff;fill-opacity:0;stroke:#ffffff;stroke-width:1.5;stroke-linecap:round;stroke-linejoin:round;stroke-dasharray:none;stroke-dashoffset:0;stroke-opacity:1;paint-order:fill markers stroke"
         id="rect35"
         width="22"
         height="22"
         x="78.207069"
         y="62.486435" /><g
         id="g1581"
         style="display:inline"
         transform="matrix(0.53191791,0,0,0.53191791,31.791389,34.567225)"><circle
           style="fill:#ffffff;fill-opacity:0;stroke:#ffffff;stroke-width:1;stroke-linecap:round;stroke-linejoin:round;stroke-dasharray:none;stroke-dashoffset:0;stroke-opacity:1;paint-order:fill markers stroke"
           id="circle1580"
           cx="114.22932"
           cy="73.98188"
           r="1.8358076" /><path
           sodipodi:type="star"
           style="fill:#ffffff;fill-opacity:0;stroke:#ffffff;stroke-width:1;stroke-linecap:round;stroke-linejoin:round;stroke-dasharray:none;stroke-dashoffset:0;stroke-opacity:1;paint-order:fill markers stroke"
           id="path1580"
           inkscape:flatsided="false"
           sodipodi:sides="12"
           sodipodi:cx="114.10724"
           sodipodi:cy="73.898598"
           sodipodi:r1="5.0640459"
           sodipodi:r2="1.6988392"
           sodipodi:arg1="-2.5372871"
           sodipodi:arg2="-0.73213672"
           inkscape:rounded="0"
           inkscape:randomized="0"
           d="m 109.94005,71.021254 5.4307,1.741737 -3.43373,-3.43984 3.83225,4.223736 -1.25377,-4.695852 1.20696,5.573989 1.26212,-4.693614 -1.74173,5.430696 3.43984,-3.433727 -4.22374,3.832252 4.69585,-1.253774 -5.57399,1.206959 4.69362,1.262126 -5.4307,-1.741738 3.43373,3.439841 -3.83225,-4.223737 1.25377,4.695852 -1.20696,-5.573989 -1.26213,4.693614 1.74174,-5.430695 -3.43984,3.433726 4.22374,-3.832252 -4.69585,1.253774 5.57399,-1.206958 z"
           inkscape:transform-center-x="-0.094901586"
           inkscape:transform-center-y="0.48379254" /></g><g
         id="g1582"
         style="display:inline"
         transform="matrix(0.53191791,0,0,0.53191791,25.10297,34.567225)"><circle
           style="fill:#ffffff;fill-opacity:0;stroke:#ffffff;stroke-width:1;stroke-linecap:round;stroke-linejoin:round;stroke-dasharray:none;stroke-dashoffset:0;stroke-opacity:1;paint-order:fill markers stroke"
           id="circle1582"
           cx="114.22932"
           cy="73.98188"
           r="1.8358076" /><path
           sodipodi:type="star"
           style="fill:#ffffff;fill-opacity:0;stroke:#ffffff;stroke-width:1;stroke-linecap:round;stroke-linejoin:round;stroke-dasharray:none;stroke-dashoffset:0;stroke-opacity:1;paint-order:fill markers stroke"
           id="path1582"
           inkscape:flatsided="false"
           sodipodi:sides="12"
           sodipodi:cx="114.10724"
           sodipodi:cy="73.898598"
           sodipodi:r1="5.0640459"
           sodipodi:r2="1.6988392"
           sodipodi:arg1="-2.5372871"
           sodipodi:arg2="-0.73213672"
           inkscape:rounded="0"
           inkscape:randomized="0"
           d="m 109.94005,71.021254 5.4307,1.741737 -3.43373,-3.43984 3.83225,4.223736 -1.25377,-4.695852 1.20696,5.573989 1.26212,-4.693614 -1.74173,5.430696 3.43984,-3.433727 -4.22374,3.832252 4.69585,-1.253774 -5.57399,1.206959 4.69362,1.262126 -5.4307,-1.741738 3.43373,3.439841 -3.83225,-4.223737 1.25377,4.695852 -1.20696,-5.573989 -1.26213,4.693614 1.74174,-5.430695 -3.43984,3.433726 4.22374,-3.832252 -4.69585,1.253774 5.57399,-1.206958 z"
           inkscape:transform-center-x="-0.094901586"
           inkscape:transform-center-y="0.48379254" /></g><rect
         style="fill:#ffffff;fill-opacity:0;stroke:#ffffff;stroke-width:1;stroke-linecap:round;stroke-linejoin:bevel;stroke-dasharray:none;stroke-dashoffset:0;stroke-opacity:1;paint-order:stroke fill markers"
         id="rect1582"
         width="4.5369"
         height="0.093544334"
         x="89.962738"
         y="78.555031" /><rect
         style="fill:#ffffff;fill-opacity:0;stroke:#ffffff;stroke-width:1;stroke-linecap:round;stroke-linejoin:bevel;stroke-dasharray:none;stroke-dashoffset:0;stroke-opacity:1;paint-order:stroke fill markers"
         id="rect1581"
         width="16.089626"
         height="8.6060791"
         x="80.962616"
         y="69.550217" /></g></g><g
     inkscape:groupmode="layer"
     id="layer10"
     inkscape:label="Blank"
     style="display:none"
     transform="matrix(-0.98517017,0,0,0.99194317,-12.566574,-4.3604775)"><g
       id="g1569"
       transform="translate(5.922374e-8,-24.60216)"
       style="display:inline"><rect
         style="fill:#ffffff;fill-opacity:0;stroke:#ffffff;stroke-width:1.5;stroke-linecap:round;stroke-linejoin:round;stroke-dasharray:none;stroke-dashoffset:0;stroke-opacity:1;paint-order:fill markers stroke"
         id="rect1568"
         width="22"
         height="22"
         x="78.207069"
         y="62.486435" /><rect
         style="display:inline;fill:#ffffff;fill-opacity:1;stroke:#ffffff;stroke-width:1.5;stroke-linecap:round;stroke-linejoin:miter;stroke-dasharray:none;stroke-dashoffset:0;stroke-opacity:1;paint-order:fill markers stroke"
         id="rect1569"
         width="18"
         height="18"
         x="80.273979"
         y="64.505745" /></g></g><g
     inkscape:groupmode="layer"
     id="g1572"
     inkscape:label="Hard Drive"
     transform="matrix(-0.98517017,0,0,0.99194317,-12.566574,-4.3604775)"><g
       id="g1577"><rect
         style="display:inline;fill:#ffffff;fill-opacity:0;stroke:#ffffff;stroke-width:1.5;stroke-linecap:round;stroke-linejoin:round;stroke-dasharray:none;stroke-dashoffset:0;stroke-opacity:1;paint-order:fill markers stroke"
         id="rect1570"
         width="22"
         height="22"
         x="78.207069"
         y="62.486435"
         transform="translate(5.9223741e-8,-24.60216)" /><rect
         style="fill:#ffffff;fill-opacity:0;stroke:#ffffff;stroke-width:1;stroke-linecap:round;stroke-linejoin:bevel;stroke-dasharray:none;stroke-dashoffset:0;stroke-opacity:1;paint-order:fill markers stroke"
         id="rect1572"
         width="10.757892"
         height="14.125194"
         x="83.722183"
         y="42.094948" /><rect
         style="fill:#ffffff;fill-opacity:0;stroke:#ffffff;stroke-width:1;stroke-linecap:round;stroke-linejoin:round;stroke-dasharray:none;stroke-dashoffset:0;stroke-opacity:1;paint-order:fill markers stroke"
         id="rect1573"
         width="2.9812958"
         height="0.40147552"
         x="90.142082"
         y="42.476906" /><rect
         style="fill:#ffffff;fill-opacity:0;stroke:#ffffff;stroke-width:1;stroke-linecap:round;stroke-linejoin:round;stroke-dasharray:none;stroke-dashoffset:0;stroke-opacity:1;paint-order:fill markers stroke"
         id="rect1575"
         width="1.5743914"
         height="0.37926465"
         x="87.220192"
         y="42.539696" /><circle
         style="fill:#ffffff;fill-opacity:1;stroke:#ffffff;stroke-width:1;stroke-linecap:round;stroke-linejoin:round;stroke-dasharray:none;stroke-dashoffset:0;stroke-opacity:1;paint-order:fill markers stroke"
         id="path1576"
         cx="89.100983"
         cy="49.344635"
         r="1.5434815" /></g></g><g
     inkscape:groupmode="layer"
     id="layer11"
     inkscape:label="Ram"
     transform="matrix(-0.98517017,0,0,0.99194317,-12.566574,-4.3604775)"><g
       id="g1"
       transform="translate(-0.01604871,1.0049132)"><rect
         style="display:inline;fill:#ffffff;fill-opacity:0;stroke:#ffffff;stroke-width:1.5;stroke-linecap:round;stroke-linejoin:round;stroke-dasharray:none;stroke-dashoffset:0;stroke-opacity:1;paint-order:fill markers stroke"
         id="rect19"
         width="22"
         height="22"
         x="103.01176"
         y="87.291122"
         transform="translate(0.01605047,-1.0049132)" /><rect
         style="fill:#ffffff;fill-opacity:0;stroke:#ffffff;stroke-width:1;stroke-linecap:round;stroke-linejoin:round;stroke-dasharray:none;stroke-dashoffset:0;stroke-opacity:1;paint-order:fill markers stroke"
         id="rect1554"
         width="14.639688"
         height="5.378799"
         x="106.59377"
         y="95.181358" /><rect
         style="fill:#ffffff;fill-opacity:0;stroke:#ffffff;stroke-width:1;stroke-linecap:round;stroke-linejoin:round;stroke-dasharray:none;stroke-dashoffset:0;stroke-opacity:1;paint-order:fill markers stroke"
         id="rect1556"
         width="3.3072877"
         height="0.92603761"
         x="116.91276"
         y="94.208206"
         ry="0" /><rect
         style="fill:#ffffff;fill-opacity:0;stroke:#ffffff;stroke-width:1;stroke-linecap:round;stroke-linejoin:round;stroke-dasharray:none;stroke-dashoffset:0;stroke-opacity:1;paint-order:fill markers stroke"
         id="rect1557"
         width="7.1602902"
         height="0.950854"
         x="107.60272"
         y="94.216469" /><rect
         style="fill:#ffffff;fill-opacity:1;stroke:#ffffff;stroke-width:1;stroke-linecap:round;stroke-linejoin:round;stroke-dasharray:none;stroke-dashoffset:0;stroke-opacity:1;paint-order:fill markers stroke"
         id="rect1561"
         width="1.7071841"
         height="1.7071841"
         x="117.92432"
         y="97.122398"
         inkscape:transform-center-x="-4.9169208"
         inkscape:transform-center-y="0.19878172" /><rect
         style="fill:#ffffff;fill-opacity:1;stroke:#ffffff;stroke-width:1;stroke-linecap:round;stroke-linejoin:round;stroke-dasharray:none;stroke-dashoffset:0;stroke-opacity:1;paint-order:fill markers stroke"
         id="rect1562"
         width="1.7071841"
         height="1.7071841"
         x="114.5918"
         y="97.122398"
         inkscape:transform-center-x="-1.5844012"
         inkscape:transform-center-y="0.19878172" /><rect
         style="fill:#ffffff;fill-opacity:1;stroke:#ffffff;stroke-width:1;stroke-linecap:round;stroke-linejoin:round;stroke-dasharray:none;stroke-dashoffset:0;stroke-opacity:1;paint-order:fill markers stroke"
         id="rect1566"
         width="1.7071841"
         height="1.7071841"
         x="111.34114"
         y="97.122398"
         inkscape:transform-center-x="1.666255"
         inkscape:transform-center-y="0.19878172" /><rect
         style="fill:#ffffff;fill-opacity:1;stroke:#ffffff;stroke-width:1;stroke-linecap:round;stroke-linejoin:round;stroke-dasharray:none;stroke-dashoffset:0;stroke-opacity:1;paint-order:fill markers stroke"
         id="rect1567"
         width="1.7071841"
         height="1.7071841"
         x="108.11386"
         y="97.122398"
         inkscape:transform-center-x="4.8935347"
         inkscape:transform-center-y="0.19878172" /></g></g><g
     inkscape:groupmode="layer"
     id="layer5"
     inkscape:label="Battery"
     transform="matrix(-0.98517017,0,0,0.99194317,-12.566574,-4.3604775)"><g
       id="g60"
       style="display:inline"
       transform="translate(12.347852,0.18708867)"><g
         inkscape:groupmode="layer"
         id="layer3"
         inkscape:label="Battery Container"><rect
           style="fill:#ffffff;fill-opacity:0;stroke:#ffffff;stroke-width:1.5;stroke-linecap:round;stroke-linejoin:round;stroke-dasharray:none;stroke-dashoffset:0;stroke-opacity:1;paint-order:fill markers stroke"
           id="rect37"
           width="22"
           height="22"
           x="90.549721"
           y="37.731041" /><g
           id="g58"><g
             id="g49"
             transform="translate(0.09921877,-1.9182292)"><rect
               style="fill:#ffffff;fill-opacity:0;stroke:#ffffff;stroke-width:1;stroke-linecap:round;stroke-linejoin:bevel;stroke-dasharray:none;stroke-dashoffset:0;stroke-opacity:1;paint-order:fill markers stroke"
               id="rect45"
               width="15"
               height="10"
               x="93.85701"
               y="46.330002"
               inkscape:highlight-color="#ffffff" /><rect
               style="fill:#ffffff;fill-opacity:0;stroke:#ffffff;stroke-width:1;stroke-linecap:square;stroke-linejoin:bevel;stroke-dasharray:none;stroke-dashoffset:0;stroke-opacity:1;paint-order:fill markers stroke"
               id="rect46"
               width="0.7606771"
               height="2.2489583"
               x="105.46953"
               y="43.98698" /><rect
               style="fill:#ffffff;fill-opacity:0;stroke:#ffffff;stroke-width:1;stroke-linecap:square;stroke-linejoin:bevel;stroke-dasharray:none;stroke-dashoffset:0;stroke-opacity:1;paint-order:fill markers stroke"
               id="rect47"
               width="0.7606771"
               height="2.2489583"
               x="96.506767"
               y="43.953907" /></g><rect
             style="fill:#ffffff;fill-opacity:0;stroke:#ffffff;stroke-width:1;stroke-linecap:round;stroke-linejoin:round;stroke-dasharray:none;stroke-dashoffset:0;stroke-opacity:1;paint-order:fill markers stroke"
             id="rect56"
             width="3"
             height="0.1"
             x="103.37991"
             y="48.14323" /><g
             id="g1585"
             transform="translate(0.89296875,0.52916667)"><rect
               style="fill:#ffffff;fill-opacity:0;stroke:#ffffff;stroke-width:1;stroke-linecap:round;stroke-linejoin:round;stroke-dasharray:none;stroke-dashoffset:0;stroke-opacity:1;paint-order:fill markers stroke"
               id="rect57"
               height="3"
               x="96.841766"
               y="46.093971"
               ry="0.011693042"
               width="0.1" /><rect
               style="fill:#ffffff;fill-opacity:0;stroke:#ffffff;stroke-width:1;stroke-linecap:round;stroke-linejoin:round;stroke-dasharray:none;stroke-dashoffset:0;stroke-opacity:1;paint-order:fill markers stroke"
               id="rect58"
               width="3"
               height="0.1"
               x="95.46199"
               y="47.567291" /></g></g></g></g></g><g
     inkscape:groupmode="layer"
     id="layer2-8"
     inkscape:label="Left"
     style="display:inline"
     transform="matrix(-0.98517017,0,0,0.99194317,-12.566574,-4.3604775)"><rect
       style="fill:#ffffff;fill-opacity:0;stroke:#ffffff;stroke-width:1.5;stroke-linecap:round;stroke-linejoin:round;stroke-dasharray:none;stroke-dashoffset:0;stroke-opacity:1;paint-order:fill markers stroke"
       id="rect20"
       width="47.605335"
       height="12.566545"
       x="77.853645"
       y="22.688021" /></g><g
     inkscape:groupmode="layer"
     id="layer1"
     inkscape:label="Background"
     transform="translate(-143.66784,-5.2907596)"><rect
       style="fill:#0fff24;fill-opacity:0;stroke:#ffffff;stroke-width:1.5;stroke-linecap:round;stroke-linejoin:round;stroke-dasharray:none;stroke-dashoffset:0;stroke-opacity:1;paint-order:fill markers stroke"
       id="rect15"
       width="128.20403"
       height="96"
       x="1.8254761"
       y="18.205252"
       ry="0"
       clip-path="url(#clipPath1543)"
       transform="matrix(-0.98517017,0,0,0.99194317,131.10127,0.93028211)" /><rect
       style="fill:#ffffff;fill-opacity:0;stroke:#ffffff;stroke-width:0.75;stroke-linecap:round;stroke-linejoin:round;stroke-dasharray:none;stroke-dashoffset:0;stroke-opacity:1;paint-order:fill markers stroke"
       id="rect17"
       width="52.194962"
       height="91.296188"
       x="75.511932"
       y="20.586502"
       ry="0"
       clip-path="url(#clipPath1546)"
       transform="matrix(-0.98517017,0,0,0.99194317,131.10127,0.93028211)" /><rect
       style="fill:#ffffff;fill-opacity:0;stroke:#ffffff;stroke-width:0.741412;stroke-linecap:round;stroke-linejoin:round;stroke-dasharray:none;stroke-dashoffset:0;stroke-opacity:1;paint-order:fill markers stroke"
       id="rect18"
       width="68.754791"
       height="90.560623"
       x="-127.21761"
       y="21.350922"
       ry="0"
       transform="scale(-1,1)" /><circle
       id="path1"
       style="fill:#eeffef;stroke:#07edd7;stroke-width:0.264583"
       cx="143.93333"
       cy="5.5562501"
       r="0.13319904" /><circle
       id="path2"
       style="fill:#eeffef;stroke:#07edd7;stroke-width:0.264583"
       cx="165.62825"
       cy="16.932426"
       r="0.13319904" /></g></svg>
