<?xml version="1.0" encoding="UTF-8" standalone="no"?>
<!-- Created with Inkscape (http://www.inkscape.org/) -->

<svg
   width="482.95007"
   height="365.53491"
   viewBox="0 0 127.78054 96.714448"
   version="1.1"
   id="svg1"
   inkscape:version="1.4.2 (f4327f4, 2025-05-13)"
   sodipodi:docname="background.svg"
   xmlns:inkscape="http://www.inkscape.org/namespaces/inkscape"
   xmlns:sodipodi="http://sodipodi.sourceforge.net/DTD/sodipodi-0.dtd"
   xmlns="http://www.w3.org/2000/svg"
   xmlns:svg="http://www.w3.org/2000/svg">
  <sodipodi:namedview
     id="namedview1"
     pagecolor="#505050"
     bordercolor="#ffffff"
     borderopacity="1"
     inkscape:showpageshadow="0"
     inkscape:pageopacity="0"
     inkscape:pagecheckerboard="1"
     inkscape:deskcolor="#505050"
     inkscape:document-units="mm"
     inkscape:zoom="0.97386897"
     inkscape:cx="124.24669"
     inkscape:cy="277.75811"
     inkscape:window-width="1389"
     inkscape:window-height="981"
     inkscape:window-x="513"
     inkscape:window-y="0"
     inkscape:window-maximized="0"
     inkscape:current-layer="layer1" />
  <defs
     id="defs1">
    <clipPath
       clipPathUnits="userSpaceOnUse"
       id="clipPath1546">
      <path
         id="path1547"
         style="fill:#ff0000;fill-opacity:1;fill-rule:nonzero;stroke:none;stroke-width:0.264583"
         d="M 75.137015,20.211686 V 112.25775 H 128.0821 V 20.211686 Z m 39.545395,47.152162 5.3e-4,5.29e-4 h 0.002 c 0.0107,3e-6 0.0214,-1.6e-5 0.032,0 0.009,1.9e-5 0.0189,-7.4e-5 0.0279,0 0.0136,1.14e-4 0.0272,7.94e-4 0.0408,0.0011 0.0115,2.65e-4 0.0227,2.44e-4 0.0341,5.3e-4 0.05,-0.0029 0.10024,-0.0034 0.15038,-0.0016 h 5.3e-4 c 0.0227,7.94e-4 0.0454,0.0021 0.0682,0.0031 0.0288,-2.04e-4 0.0576,-7.94e-4 0.0863,-0.0011 0.0295,-5.29e-4 0.0594,-0.0011 0.0889,-0.0021 0.0219,-7.94e-4 0.0346,0.0084 0.0377,0.01913 0.008,0.0011 0.0155,0.0024 0.0233,0.0041 0.019,-2.65e-4 0.0379,-5.3e-4 0.0568,-5.3e-4 0.13433,1.43e-4 0.14419,0.126257 0.0289,0.144177 -0.0224,0.01373 -0.0568,0.01786 -0.0997,0.0031 -0.0215,5.29e-4 -0.0431,7.94e-4 -0.0646,0.0016 0.0216,0.01267 0.0408,0.02665 0.0574,0.04186 0.0484,-0.0013 0.077,-0.0021 0.13229,-0.0041 0.0509,-0.0019 0.10216,-0.0028 0.15296,-0.0078 0.007,-7.93e-4 0.013,-0.0019 0.0202,-0.0026 0.009,-0.0011 0.0174,-0.0016 0.0253,-0.0016 0.11915,7.94e-4 0.12141,0.129035 -0.0129,0.147278 -0.005,5.29e-4 -0.009,0.0011 -0.0134,0.0016 -0.0552,0.0054 -0.11048,0.0073 -0.16588,0.0093 -0.0214,7.94e-4 -0.039,0.0016 -0.0553,0.0021 0.0107,0.06194 -0.005,0.126008 -0.047,0.181385 -0.002,0.01744 -0.007,0.03423 -0.0129,0.05013 0.0847,0.02638 0.12203,0.04053 0.12816,0.05167 l 5.3e-4,5.29e-4 v 5.3e-4 l 5.3e-4,5.29e-4 c 1e-5,2.09e-4 0,0.0019 0,0.0021 v 5.3e-4 5.29e-4 5.29e-4 5.29e-4 5.29e-4 5.3e-4 h -5.3e-4 v 0.0031 c -0.0224,0.02871 -0.25846,0.0534 -0.36536,0.273886 0.2378,0.07454 0.2601,0.31287 0.0698,0.420129 0.38132,0.111078 0.33536,0.438632 0.0181,0.476457 -0.001,0.01797 -0.003,0.0365 -0.006,0.05581 -0.0621,0.445574 -0.11173,0.893061 -0.14779,1.34152 -0.005,0.06656 -0.0107,0.133384 -0.0155,0.199988 0.0158,0.0044 0.0274,0.0089 0.0346,0.01498 0.035,-7.94e-4 0.0704,-0.0024 0.10542,-0.0031 0.37972,-0.0071 0.46537,0.287377 0.25786,0.425815 0.0363,0.0011 0.0722,0.0019 0.10852,0.0031 0.45875,0.01513 0.4495,0.444357 0.046,0.490408 0.30324,0.103095 0.24475,0.469738 -0.17725,0.469738 h -0.10077 c 0.0812,0.138634 -0.0167,0.326779 -0.29404,0.345716 -0.005,0.03917 -0.0231,0.07604 -0.0527,0.107487 l -0.002,0.0956 c 0.0162,0.0054 0.0311,0.01074 0.0444,0.01603 0.029,0.01156 0.0528,0.03027 0.0801,0.04547 0.21152,0.118012 0.0473,0.136882 -0.12816,0.163817 -9e-5,0.01437 -5.3e-4,0.02854 -5.3e-4,0.04289 0.0644,0.01574 0.12854,0.03372 0.19172,0.05426 0.34916,0.113495 0.33394,0.387477 0.10645,0.463021 0.19765,0.04697 0.3935,0.09994 0.58653,0.163298 0.10543,0.03462 0.15981,0.06034 0.25424,0.101285 0.44723,0.194032 0.2339,0.628526 -0.21187,0.448035 0.0576,0.185404 -0.1279,0.357444 -0.43563,0.22221 -0.15188,-0.06674 -0.30546,-0.129487 -0.45992,-0.189653 0.0354,0.06682 0.0273,0.147142 -0.0331,0.216006 0.002,0.332247 0.005,0.664405 0.005,0.996838 -1.3e-4,0.122084 -0.0314,0.214032 -0.0775,0.275437 0.1499,0.07117 0.30049,0.141684 0.45062,0.212389 0.42999,0.202512 0.21434,0.608655 -0.20464,0.449069 0.0109,0.09772 0.0205,0.195313 0.0248,0.293521 0.0116,0.232402 0.0286,0.464391 0.0434,0.696598 0.006,0.0931 0.01,0.185954 0.0155,0.279053 0.008,0.134993 0.0199,0.270386 0.0232,0.405662 5.3e-4,0.04143 -5.3e-4,0.08258 -5.3e-4,0.124023 -0.007,0.217557 -0.017,0.436954 -0.0615,0.650606 -0.01,0.03693 -0.0189,0.0754 -0.0305,0.11317 0.21767,0.08567 0.27041,0.259339 0.19172,0.371554 0.12727,0.06163 0.1903,0.158269 0.1881,0.245981 0.39419,-0.01156 0.47954,0.434564 -0.006,0.590661 -0.0358,0.01162 -0.0723,0.02013 -0.10904,0.02842 -0.0446,0.01177 -0.0902,0.01868 -0.13591,0.02429 -0.0287,0.0019 -0.0568,0.008 -0.0847,0.01344 -0.004,7.94e-4 -0.007,0.0024 -0.01,0.0031 -0.009,0.0019 -0.0184,0.0044 -0.0274,0.0062 -0.003,7.93e-4 -0.007,0.0019 -0.0124,0.0026 h -5.3e-4 l -0.001,0.0031 c -0.0152,0.0071 -0.0303,0.0131 -0.046,0.01913 h -0.001 -5.3e-4 v 0.0031 h -5.3e-4 -5.3e-4 -10e-4 v 0.0016 h -5.3e-4 -5.3e-4 -5.3e-4 l -10e-4,5.29e-4 h -5.3e-4 -5.3e-4 -5.3e-4 -5.3e-4 -0.001 v 5.29e-4 h -5.3e-4 v 5.29e-4 c -0.005,0.0016 -0.008,0.0033 -0.0103,0.0041 0.0112,-2.46e-4 0.0224,-7.94e-4 0.0336,-0.0011 0.0251,-7.93e-4 0.0505,-0.0019 0.0754,-0.0057 0.0446,-0.0057 0.0888,-0.01262 0.13333,-0.01913 0.0384,-0.0046 0.077,-0.0087 0.11576,-0.0067 0.0885,0.0046 0.0915,0.07949 0.0243,0.0987 0.0151,0.0093 0.0296,0.01741 0.0331,0.02429 l 5.3e-4,5.29e-4 v 5.29e-4 5.29e-4 5.29e-4 l 5.3e-4,5.29e-4 v 5.3e-4 l -5.3e-4,5.29e-4 v 5.29e-4 5.29e-4 l -5.3e-4,5.29e-4 v 5.29e-4 l -5.3e-4,5.3e-4 c -0.004,0.003 -0.013,0.0064 -0.0264,0.0083 -0.0337,0.0047 -0.0679,0.0056 -0.1018,0.0072 -0.0416,0.0019 -0.0825,0.0057 -0.12402,0.0083 -0.0495,0.0024 -0.0993,0.0026 -0.14883,0.0031 -0.0485,5.29e-4 -0.0967,7.94e-4 -0.14521,5.29e-4 -0.0428,-2.65e-4 -0.0859,-7.94e-4 -0.12867,-0.0016 -0.003,5.3e-4 -0.006,0.0011 -0.009,0.0016 -0.0354,0.0064 -0.0707,0.01251 -0.10645,0.01603 -0.0352,0.0038 -0.0706,0.0076 -0.10594,0.01085 -0.0385,0.0035 -0.0767,0.007 -0.11524,0.01035 -0.0532,0.0047 -0.10679,0.0094 -0.16019,0.01188 -0.0459,0.0021 -0.092,0.005 -0.13798,0.0031 -0.0291,-0.0011 -0.0573,-0.0038 -0.0863,-0.0062 -0.031,-0.0019 -0.0621,-0.0033 -0.093,-0.0062 l -5.3e-4,-5.29e-4 h -5.3e-4 -5.3e-4 -5.3e-4 v -0.0011 h -5.3e-4 -5.3e-4 -5.3e-4 l -5.2e-4,-5.29e-4 c -0.001,-5.29e-4 -0.003,-0.0021 -0.004,-0.0026 h -5.3e-4 l -5.3e-4,-5.29e-4 c -5.3e-4,-4.2e-5 -2.6e-4,3.4e-5 -0.002,0 -0.003,3e-6 -0.005,-0.0016 -0.008,-0.0021 h -5.3e-4 c -0.0155,-0.0013 -0.031,-0.0029 -0.0465,-0.0052 h -5.3e-4 -0.001 -5.3e-4 -5.3e-4 -5.2e-4 -5.3e-4 l -5.3e-4,-5.29e-4 h -5.3e-4 -0.001 -5.3e-4 -5.3e-4 -5.3e-4 v -5.29e-4 h -0.001 -5.3e-4 -5.2e-4 c -0.0169,-0.0027 -0.0337,-0.0056 -0.0507,-0.0088 -0.0136,-0.0024 -0.0266,-0.0047 -0.0403,-0.0062 -0.005,-7.93e-4 -0.01,-0.0032 -0.0124,-0.0057 l -5.3e-4,-5.29e-4 -5.3e-4,-5.3e-4 -5.3e-4,-5.29e-4 -5.3e-4,-5.29e-4 -5.3e-4,-5.29e-4 v -5.29e-4 -5.29e-4 l -5.3e-4,-5.3e-4 v -5.29e-4 -5.29e-4 -5.29e-4 -5.29e-4 -5.29e-4 -5.3e-4 -5.29e-4 -5.29e-4 l 5.3e-4,-5.29e-4 5.3e-4,-5.29e-4 5.3e-4,-5.29e-4 h 10e-4 l 5.3e-4,-5.3e-4 5.2e-4,-0.0016 5.3e-4,-5.29e-4 c -0.007,-0.0016 -0.0142,-0.0037 -0.0201,-0.0062 -0.001,-1.64e-4 -0.003,-5.29e-4 -0.004,-5.29e-4 -0.0319,-0.0029 -0.0626,-0.01087 -0.093,-0.02066 -0.22593,-0.07287 -0.14182,-0.152974 -0.002,-0.233061 -0.0568,-0.01019 -0.11389,-0.02101 -0.17054,-0.03152 -0.01,-0.0019 -0.0182,-0.0053 -0.0253,-0.0088 -0.3053,-0.0906 -0.30249,-0.453059 0.0765,-0.548288 -0.43874,-0.07778 -0.39547,-0.503293 0.005,-0.495575 0.0271,5.29e-4 0.0555,0.0039 0.0858,0.0088 h 5.3e-4 5.3e-4 0.001 5.3e-4 c -0.0122,-0.07591 -0.0195,-0.152609 -0.0279,-0.22841 -0.0213,-0.191487 -0.0212,-0.199427 -0.0393,-0.397909 -0.0308,-0.352798 -0.0508,-0.706575 -0.0646,-1.0604 -0.009,-0.241723 -0.0148,-0.483685 -0.0108,-0.725538 0.003,-0.205454 0.023,-0.409998 0.0465,-0.613915 0.0149,-0.118467 0.0322,-0.236382 0.0522,-0.353984 -0.0868,-0.04374 -0.17393,-0.08748 -0.26097,-0.130741 -0.33764,-0.167833 -0.28586,-0.468984 -0.0434,-0.500745 -0.0853,-0.03897 -0.17065,-0.07758 -0.25631,-0.115755 -0.30415,-0.135583 -0.30917,-0.387488 -0.14108,-0.473356 0.001,-0.01103 0.004,-0.02193 0.007,-0.03256 -0.45294,-0.01945 -0.44538,-0.490505 0.0341,-0.495575 0.26561,-0.0028 0.12715,-0.0019 0.41548,0.0031 0.0207,0.0011 0.0408,0.0021 0.0615,0.0031 -0.0155,-0.0904 0.0352,-0.185375 0.14935,-0.236162 -0.009,-0.0283 -0.0169,-0.05971 -0.0212,-0.09405 -0.0887,-0.007 -0.17746,-0.01344 -0.26613,-0.02016 -0.38073,-0.02881 -0.44294,-0.333507 -0.22169,-0.45062 -0.0543,-0.08208 -0.0469,-0.180895 0.0212,-0.251663 -0.30765,-0.07851 -0.33152,-0.350499 -0.12195,-0.448035 -0.0501,-0.0097 -0.0937,-0.02392 -0.13074,-0.04186 -0.0489,-0.0021 -0.11203,-0.0055 -0.19844,-0.0093 -0.49067,-0.02146 -0.46929,-0.516554 0.0217,-0.495062 0.40799,0.01786 0.31174,0.01225 0.54932,0.02429 0.005,-0.08401 0.0654,-0.166328 0.18294,-0.208772 -0.21576,-0.0612 -0.25994,-0.262038 -0.11938,-0.38344 -0.0849,-0.02697 -0.14142,-0.07644 -0.16898,-0.133326 -0.26717,0.04284 -0.15251,0.02302 -0.56172,0.09922 -0.48275,0.08991 -0.57282,-0.397563 -0.0894,-0.487307 0.0424,-0.0079 0.0792,-0.01413 0.11162,-0.02016 -0.002,-0.122383 0.11558,-0.24847 0.3576,-0.258898 0.19604,-0.0085 0.39191,-0.01323 0.58808,-0.01654 -0.002,-0.17839 0.002,-0.357238 0.0124,-0.535369 -0.0385,-0.0039 -0.0725,-0.0163 -0.10077,-0.03462 -0.23032,0.05194 -0.3723,-0.0474 -0.39015,-0.172598 -0.21324,-0.08143 -0.20457,-0.372438 0.14572,-0.479558 0.1332,-0.04072 0.26551,-0.08201 0.39791,-0.125058 h 5.3e-4 v -0.0026 -0.0031 l -5.3e-4,-5.29e-4 v -5.29e-4 -5.29e-4 -5.3e-4 h 5.3e-4 l 5.3e-4,-0.0011 v -5.29e-4 -0.0016 l 5.3e-4,-5.29e-4 c -0.02,-0.01487 -0.0359,-0.03171 -0.0491,-0.04961 -0.33545,-0.08951 -0.30255,-0.448678 0.0615,-0.476457 0.005,-5.29e-4 0.01,-0.0013 0.0155,-0.0016 -0.0168,-0.08653 0.0273,-0.182938 0.13849,-0.245462 -0.40714,0.0066 -0.52378,-0.300125 -0.3297,-0.472324 -0.14178,-0.162986 -0.0379,-0.422592 0.31885,-0.450617 0.009,-0.0034 0.0194,-0.0065 0.0279,-0.0098 0.0173,-0.0067 0.0351,-0.01355 0.0527,-0.01963 -0.0112,2.22e-4 -0.023,0.0011 -0.0341,0.0021 -0.008,7.94e-4 -0.0168,0.0021 -0.0248,0.0041 -0.0593,0.01595 -0.0747,-0.04605 -0.015,-0.06046 0.0106,-0.0026 0.0201,-0.0043 0.031,-0.0052 0.0252,-0.0024 0.0516,-0.0031 0.077,-0.0031 l 0.0114,-0.0011 h 5.3e-4 c 0.0389,2.65e-4 0.0779,7.94e-4 0.11678,0.0021 0.03,0.0011 0.0603,0.0021 0.0904,0.0041 0.0101,2.64e-4 0.0199,7.93e-4 0.03,5.29e-4 0.012,-5.29e-4 0.0241,-0.0026 0.0362,-0.0031 0.0343,-0.0019 0.069,-0.0021 0.10336,-0.0031 0.0331,-0.0011 0.0661,-0.0013 0.0992,0.0011 0.0249,0.0013 0.0495,0.0032 0.0744,0.0052 0.006,5.29e-4 0.0123,0.0011 0.0186,0.0016 0.012,-0.0011 0.0242,-0.0019 0.0362,-0.0026 0.0445,-0.0021 0.0892,-0.0024 0.13384,-0.0026 0.006,-7.94e-4 0.0121,-0.0019 0.0181,-0.0026 0.0167,-0.0021 0.0333,-0.0041 0.0501,-0.0057 0.0142,-0.0013 0.0282,-0.0034 0.0424,-0.0041 0.0112,-5.29e-4 0.0224,-5.29e-4 0.0336,-5.29e-4 z m 0.33848,11.591539 c -10e-6,7.93e-4 -3e-5,0.0019 0,0.0026 h 5.3e-4 c 2e-5,-5.3e-4 -1e-5,-0.0011 0,-0.0016 v -5.29e-4 z m -0.26975,0.787548 c -0.002,0.0039 -0.003,0.008 -0.005,0.01188 0.002,-2.65e-4 0.003,-7.94e-4 0.005,-0.0011 l 5.3e-4,-5.29e-4 h 5.3e-4 5.3e-4 5.3e-4 5.3e-4 5.3e-4 5.3e-4 5.2e-4 v -5.29e-4 h 5.3e-4 5.3e-4 l 5.3e-4,-5.29e-4 h 5.3e-4 c 0.005,-0.0021 0.0107,-0.0042 0.016,-0.0062 -0.007,-0.0011 -0.0138,-0.0021 -0.0207,-0.0031 z m -0.97772,0.07338 c 0.002,2.7e-5 0.005,3e-6 0.007,0 -0.002,1.19e-4 -0.004,9.8e-5 -0.007,0 z m 0.49867,0.612365 c -0.006,0.0013 -0.0116,0.0028 -0.017,0.0041 0.0218,-0.0011 0.0435,-0.0024 0.0651,-0.0041 -0.0148,9.8e-5 -0.0297,-7.1e-5 -0.0444,0 -0.001,3e-6 -0.002,0 -0.003,0 z" />
    </clipPath>
    <clipPath
       clipPathUnits="userSpaceOnUse"
       id="clipPath1543">
      <path
         id="path1544"
         style="fill:#ff0000;fill-opacity:1;fill-rule:nonzero;stroke:none;stroke-width:0.264583"
         d="M 1.0753866,17.455265 V 114.95526 H 130.77961 V 17.455265 Z m 113.6070234,49.908583 5.3e-4,5.29e-4 h 0.002 c 0.0107,3e-6 0.0214,-1.6e-5 0.032,0 0.009,1.9e-5 0.0189,-7.4e-5 0.0279,0 0.0136,1.14e-4 0.0272,7.94e-4 0.0408,0.0011 0.0115,2.65e-4 0.0227,2.44e-4 0.0341,5.3e-4 0.05,-0.0029 0.10024,-0.0034 0.15038,-0.0016 h 5.3e-4 c 0.0227,7.94e-4 0.0454,0.0021 0.0682,0.0031 0.0288,-2.04e-4 0.0576,-7.94e-4 0.0863,-0.0011 0.0295,-5.29e-4 0.0594,-0.0011 0.0889,-0.0021 0.0219,-7.94e-4 0.0346,0.0084 0.0377,0.01913 0.008,0.0011 0.0155,0.0024 0.0233,0.0041 0.019,-2.65e-4 0.0379,-5.3e-4 0.0568,-5.3e-4 0.13433,1.43e-4 0.14419,0.126257 0.0289,0.144177 -0.0224,0.01373 -0.0568,0.01786 -0.0997,0.0031 -0.0215,5.29e-4 -0.0431,7.94e-4 -0.0646,0.0016 0.0216,0.01267 0.0408,0.02665 0.0574,0.04186 0.0484,-0.0013 0.077,-0.0021 0.13229,-0.0041 0.0509,-0.0019 0.10216,-0.0028 0.15296,-0.0078 0.007,-7.93e-4 0.013,-0.0019 0.0202,-0.0026 0.009,-0.0011 0.0174,-0.0016 0.0253,-0.0016 0.11915,7.94e-4 0.12141,0.129035 -0.0129,0.147278 -0.005,5.29e-4 -0.009,0.0011 -0.0134,0.0016 -0.0552,0.0054 -0.11048,0.0073 -0.16588,0.0093 -0.0214,7.94e-4 -0.039,0.0016 -0.0553,0.0021 0.0107,0.06194 -0.005,0.126008 -0.047,0.181385 -0.002,0.01744 -0.007,0.03423 -0.0129,0.05013 0.0847,0.02638 0.12203,0.04053 0.12816,0.05167 l 5.3e-4,5.29e-4 v 5.3e-4 l 5.3e-4,5.29e-4 c 1e-5,2.09e-4 0,0.0019 0,0.0021 v 5.3e-4 5.29e-4 5.29e-4 5.29e-4 5.29e-4 5.3e-4 h -5.3e-4 v 0.0031 c -0.0224,0.02871 -0.25846,0.0534 -0.36536,0.273886 0.2378,0.07454 0.2601,0.31287 0.0698,0.420129 0.38132,0.111078 0.33536,0.438632 0.0181,0.476457 -0.001,0.01797 -0.003,0.0365 -0.006,0.05581 -0.0621,0.445574 -0.11173,0.893061 -0.14779,1.34152 -0.005,0.06656 -0.0107,0.133384 -0.0155,0.199988 0.0158,0.0044 0.0274,0.0089 0.0346,0.01498 0.035,-7.94e-4 0.0704,-0.0024 0.10542,-0.0031 0.37972,-0.0071 0.46537,0.287377 0.25786,0.425815 0.0363,0.0011 0.0722,0.0019 0.10852,0.0031 0.45875,0.01513 0.4495,0.444357 0.046,0.490408 0.30324,0.103095 0.24475,0.469738 -0.17725,0.469738 h -0.10077 c 0.0812,0.138634 -0.0167,0.326779 -0.29404,0.345716 -0.005,0.03917 -0.0231,0.07604 -0.0527,0.107487 l -0.002,0.0956 c 0.0162,0.0054 0.0311,0.01074 0.0444,0.01603 0.029,0.01156 0.0528,0.03027 0.0801,0.04547 0.21152,0.118012 0.0473,0.136882 -0.12816,0.163817 -9e-5,0.01437 -5.3e-4,0.02854 -5.3e-4,0.04289 0.0644,0.01574 0.12854,0.03372 0.19172,0.05426 0.34916,0.113495 0.33394,0.387477 0.10645,0.463021 0.19765,0.04697 0.3935,0.09994 0.58653,0.163298 0.10543,0.03462 0.15981,0.06034 0.25424,0.101285 0.44723,0.194032 0.2339,0.628526 -0.21187,0.448035 0.0576,0.185404 -0.1279,0.357444 -0.43563,0.22221 -0.15188,-0.06674 -0.30546,-0.129487 -0.45992,-0.189653 0.0354,0.06682 0.0273,0.147142 -0.0331,0.216006 0.002,0.332247 0.005,0.664405 0.005,0.996838 -1.3e-4,0.122084 -0.0314,0.214032 -0.0775,0.275437 0.1499,0.07117 0.30049,0.141684 0.45062,0.212389 0.42999,0.202512 0.21434,0.608655 -0.20464,0.449069 0.0109,0.09772 0.0205,0.195313 0.0248,0.293521 0.0116,0.232402 0.0286,0.464391 0.0434,0.696598 0.006,0.0931 0.01,0.185954 0.0155,0.279053 0.008,0.134993 0.0199,0.270386 0.0232,0.405662 5.3e-4,0.04143 -5.3e-4,0.08258 -5.3e-4,0.124023 -0.007,0.217557 -0.017,0.436954 -0.0615,0.650606 -0.01,0.03693 -0.0189,0.0754 -0.0305,0.11317 0.21767,0.08567 0.27041,0.259339 0.19172,0.371554 0.12727,0.06163 0.1903,0.158269 0.1881,0.245981 0.39419,-0.01156 0.47954,0.434564 -0.006,0.590661 -0.0358,0.01162 -0.0723,0.02013 -0.10904,0.02842 -0.0446,0.01177 -0.0902,0.01868 -0.13591,0.02429 -0.0287,0.0019 -0.0568,0.008 -0.0847,0.01344 -0.004,7.94e-4 -0.007,0.0024 -0.01,0.0031 -0.009,0.0019 -0.0184,0.0044 -0.0274,0.0062 -0.003,7.93e-4 -0.007,0.0019 -0.0124,0.0026 h -5.3e-4 l -0.001,0.0031 c -0.0152,0.0071 -0.0303,0.0131 -0.046,0.01913 h -0.001 -5.3e-4 v 0.0031 h -5.3e-4 -5.3e-4 -10e-4 v 0.0016 h -5.3e-4 -5.3e-4 -5.3e-4 l -10e-4,5.29e-4 h -5.3e-4 -5.3e-4 -5.3e-4 -5.3e-4 -0.001 v 5.29e-4 h -5.3e-4 v 5.29e-4 c -0.005,0.0016 -0.008,0.0033 -0.0103,0.0041 0.0112,-2.46e-4 0.0224,-7.94e-4 0.0336,-0.0011 0.0251,-7.93e-4 0.0505,-0.0019 0.0754,-0.0057 0.0446,-0.0057 0.0888,-0.01262 0.13333,-0.01913 0.0384,-0.0046 0.077,-0.0087 0.11576,-0.0067 0.0885,0.0046 0.0915,0.07949 0.0243,0.0987 0.0151,0.0093 0.0296,0.01741 0.0331,0.02429 l 5.3e-4,5.29e-4 v 5.29e-4 5.29e-4 5.29e-4 l 5.3e-4,5.29e-4 v 5.3e-4 l -5.3e-4,5.29e-4 v 5.29e-4 5.29e-4 l -5.3e-4,5.29e-4 v 5.29e-4 l -5.3e-4,5.3e-4 c -0.004,0.003 -0.013,0.0064 -0.0264,0.0083 -0.0337,0.0047 -0.0679,0.0056 -0.1018,0.0072 -0.0416,0.0019 -0.0825,0.0057 -0.12402,0.0083 -0.0495,0.0024 -0.0993,0.0026 -0.14883,0.0031 -0.0485,5.29e-4 -0.0967,7.94e-4 -0.14521,5.29e-4 -0.0428,-2.65e-4 -0.0859,-7.94e-4 -0.12867,-0.0016 -0.003,5.3e-4 -0.006,0.0011 -0.009,0.0016 -0.0354,0.0064 -0.0707,0.01251 -0.10645,0.01603 -0.0352,0.0038 -0.0706,0.0076 -0.10594,0.01085 -0.0385,0.0035 -0.0767,0.007 -0.11524,0.01035 -0.0532,0.0047 -0.10679,0.0094 -0.16019,0.01188 -0.0459,0.0021 -0.092,0.005 -0.13798,0.0031 -0.0291,-0.0011 -0.0573,-0.0038 -0.0863,-0.0062 -0.031,-0.0019 -0.0621,-0.0033 -0.093,-0.0062 l -5.3e-4,-5.29e-4 h -5.3e-4 -5.3e-4 -5.3e-4 v -0.0011 h -5.3e-4 -5.3e-4 -5.3e-4 l -5.2e-4,-5.29e-4 c -0.001,-5.29e-4 -0.003,-0.0021 -0.004,-0.0026 h -5.3e-4 l -5.3e-4,-5.29e-4 c -5.3e-4,-4.2e-5 -2.6e-4,3.4e-5 -0.002,0 -0.003,3e-6 -0.005,-0.0016 -0.008,-0.0021 h -5.3e-4 c -0.0155,-0.0013 -0.031,-0.0029 -0.0465,-0.0052 h -5.3e-4 -0.001 -5.3e-4 -5.3e-4 -5.2e-4 -5.3e-4 l -5.3e-4,-5.29e-4 h -5.3e-4 -0.001 -5.3e-4 -5.3e-4 -5.3e-4 v -5.29e-4 h -0.001 -5.3e-4 -5.2e-4 c -0.0169,-0.0027 -0.0337,-0.0056 -0.0507,-0.0088 -0.0136,-0.0024 -0.0266,-0.0047 -0.0403,-0.0062 -0.005,-7.93e-4 -0.01,-0.0032 -0.0124,-0.0057 l -5.3e-4,-5.29e-4 -5.3e-4,-5.3e-4 -5.3e-4,-5.29e-4 -5.3e-4,-5.29e-4 -5.3e-4,-5.29e-4 v -5.29e-4 -5.29e-4 l -5.3e-4,-5.3e-4 v -5.29e-4 -5.29e-4 -5.29e-4 -5.29e-4 -5.29e-4 -5.3e-4 -5.29e-4 -5.29e-4 l 5.3e-4,-5.29e-4 5.3e-4,-5.29e-4 5.3e-4,-5.29e-4 h 10e-4 l 5.3e-4,-5.3e-4 5.2e-4,-0.0016 5.3e-4,-5.29e-4 c -0.007,-0.0016 -0.0142,-0.0037 -0.0201,-0.0062 -0.001,-1.64e-4 -0.003,-5.29e-4 -0.004,-5.29e-4 -0.0319,-0.0029 -0.0626,-0.01087 -0.093,-0.02066 -0.22593,-0.07287 -0.14182,-0.152974 -0.002,-0.233061 -0.0568,-0.01019 -0.11389,-0.02101 -0.17054,-0.03152 -0.01,-0.0019 -0.0182,-0.0053 -0.0253,-0.0088 -0.3053,-0.0906 -0.30249,-0.453059 0.0765,-0.548288 -0.43874,-0.07778 -0.39547,-0.503293 0.005,-0.495575 0.0271,5.29e-4 0.0555,0.0039 0.0858,0.0088 h 5.3e-4 5.3e-4 0.001 5.3e-4 c -0.0122,-0.07591 -0.0195,-0.152609 -0.0279,-0.22841 -0.0213,-0.191487 -0.0212,-0.199427 -0.0393,-0.397909 -0.0308,-0.352798 -0.0508,-0.706575 -0.0646,-1.0604 -0.009,-0.241723 -0.0148,-0.483685 -0.0108,-0.725538 0.003,-0.205454 0.023,-0.409998 0.0465,-0.613915 0.0149,-0.118467 0.0322,-0.236382 0.0522,-0.353984 -0.0868,-0.04374 -0.17393,-0.08748 -0.26097,-0.130741 -0.33764,-0.167833 -0.28586,-0.468984 -0.0434,-0.500745 -0.0853,-0.03897 -0.17065,-0.07758 -0.25631,-0.115755 -0.30415,-0.135583 -0.30917,-0.387488 -0.14108,-0.473356 0.001,-0.01103 0.004,-0.02193 0.007,-0.03256 -0.45294,-0.01945 -0.44538,-0.490505 0.0341,-0.495575 0.26561,-0.0028 0.12715,-0.0019 0.41548,0.0031 0.0207,0.0011 0.0408,0.0021 0.0615,0.0031 -0.0155,-0.0904 0.0352,-0.185375 0.14935,-0.236162 -0.009,-0.0283 -0.0169,-0.05971 -0.0212,-0.09405 -0.0887,-0.007 -0.17746,-0.01344 -0.26613,-0.02016 -0.38073,-0.02881 -0.44294,-0.333507 -0.22169,-0.45062 -0.0543,-0.08208 -0.0469,-0.180895 0.0212,-0.251663 -0.30765,-0.07851 -0.33152,-0.350499 -0.12195,-0.448035 -0.0501,-0.0097 -0.0937,-0.02392 -0.13074,-0.04186 -0.0489,-0.0021 -0.11203,-0.0055 -0.19844,-0.0093 -0.49067,-0.02146 -0.46929,-0.516554 0.0217,-0.495062 0.40799,0.01786 0.31174,0.01225 0.54932,0.02429 0.005,-0.08401 0.0654,-0.166328 0.18294,-0.208772 -0.21576,-0.0612 -0.25994,-0.262038 -0.11938,-0.38344 -0.0849,-0.02697 -0.14142,-0.07644 -0.16898,-0.133326 -0.26717,0.04284 -0.15251,0.02302 -0.56172,0.09922 -0.48275,0.08991 -0.57282,-0.397563 -0.0894,-0.487307 0.0424,-0.0079 0.0792,-0.01413 0.11162,-0.02016 -0.002,-0.122383 0.11558,-0.24847 0.3576,-0.258898 0.19604,-0.0085 0.39191,-0.01323 0.58808,-0.01654 -0.002,-0.17839 0.002,-0.357238 0.0124,-0.535369 -0.0385,-0.0039 -0.0725,-0.0163 -0.10077,-0.03462 -0.23032,0.05194 -0.3723,-0.0474 -0.39015,-0.172598 -0.21324,-0.08143 -0.20457,-0.372438 0.14572,-0.479558 0.1332,-0.04072 0.26551,-0.08201 0.39791,-0.125058 h 5.3e-4 v -0.0026 -0.0031 l -5.3e-4,-5.29e-4 v -5.29e-4 -5.29e-4 -5.3e-4 h 5.3e-4 l 5.3e-4,-0.0011 v -5.29e-4 -0.0016 l 5.3e-4,-5.29e-4 c -0.02,-0.01487 -0.0359,-0.03171 -0.0491,-0.04961 -0.33545,-0.08951 -0.30255,-0.448678 0.0615,-0.476457 0.005,-5.29e-4 0.01,-0.0013 0.0155,-0.0016 -0.0168,-0.08653 0.0273,-0.182938 0.13849,-0.245462 -0.40714,0.0066 -0.52378,-0.300125 -0.3297,-0.472324 -0.14178,-0.162986 -0.0379,-0.422592 0.31885,-0.450617 0.009,-0.0034 0.0194,-0.0065 0.0279,-0.0098 0.0173,-0.0067 0.0351,-0.01355 0.0527,-0.01963 -0.0112,2.22e-4 -0.023,0.0011 -0.0341,0.0021 -0.008,7.94e-4 -0.0168,0.0021 -0.0248,0.0041 -0.0593,0.01595 -0.0747,-0.04605 -0.015,-0.06046 0.0106,-0.0026 0.0201,-0.0043 0.031,-0.0052 0.0252,-0.0024 0.0516,-0.0031 0.077,-0.0031 l 0.0114,-0.0011 h 5.3e-4 c 0.0389,2.65e-4 0.0779,7.94e-4 0.11678,0.0021 0.03,0.0011 0.0603,0.0021 0.0904,0.0041 0.0101,2.64e-4 0.0199,7.93e-4 0.03,5.29e-4 0.012,-5.29e-4 0.0241,-0.0026 0.0362,-0.0031 0.0343,-0.0019 0.069,-0.0021 0.10336,-0.0031 0.0331,-0.0011 0.0661,-0.0013 0.0992,0.0011 0.0249,0.0013 0.0495,0.0032 0.0744,0.0052 0.006,5.29e-4 0.0123,0.0011 0.0186,0.0016 0.012,-0.0011 0.0242,-0.0019 0.0362,-0.0026 0.0445,-0.0021 0.0892,-0.0024 0.13384,-0.0026 0.006,-7.94e-4 0.0121,-0.0019 0.0181,-0.0026 0.0167,-0.0021 0.0333,-0.0041 0.0501,-0.0057 0.0142,-0.0013 0.0282,-0.0034 0.0424,-0.0041 0.0112,-5.29e-4 0.0224,-5.29e-4 0.0336,-5.29e-4 z m 0.33848,11.591539 c -10e-6,7.93e-4 -3e-5,0.0019 0,0.0026 h 5.3e-4 c 2e-5,-5.3e-4 -1e-5,-0.0011 0,-0.0016 v -5.29e-4 z m -0.26975,0.787548 c -0.002,0.0039 -0.003,0.008 -0.005,0.01188 0.002,-2.65e-4 0.003,-7.94e-4 0.005,-0.0011 l 5.3e-4,-5.29e-4 h 5.3e-4 5.3e-4 5.3e-4 5.3e-4 5.3e-4 5.3e-4 5.2e-4 v -5.29e-4 h 5.3e-4 5.3e-4 l 5.3e-4,-5.29e-4 h 5.3e-4 c 0.005,-0.0021 0.0107,-0.0042 0.016,-0.0062 -0.007,-0.0011 -0.0138,-0.0021 -0.0207,-0.0031 z m -0.97772,0.07338 c 0.002,2.7e-5 0.005,3e-6 0.007,0 -0.002,1.19e-4 -0.004,9.8e-5 -0.007,0 z m 0.49867,0.612365 c -0.006,0.0013 -0.0116,0.0028 -0.017,0.0041 0.0218,-0.0011 0.0435,-0.0024 0.0651,-0.0041 -0.0148,9.8e-5 -0.0297,-7.1e-5 -0.0444,0 -0.001,3e-6 -0.002,0 -0.003,0 z" />
    </clipPath>
    <filter
       style="color-interpolation-filters:sRGB"
       id="filter1"
       inkscape:label="filter1"
       x="-0.0058500503"
       y="-0.0078123614"
       width="1.0117001"
       height="1.0156249">
      <feFlood
         id="feFlood1" />
      <feComposite
         id="feComposite1"
         in2="SourceGraphic"
         operator="out" />
    </filter>
  </defs>
  <g
     inkscape:label="Layer 1"
     inkscape:groupmode="layer"
     id="layer1"
     transform="translate(-2.2555655,-17.78861)"
     style="filter:url(#filter1)">
    <g
       id="g1"
       transform="translate(-39.019431,-82.22389)">
      <rect
         style="fill:#0fff24;fill-opacity:0;stroke:#000000;stroke-width:1.5;stroke-linecap:round;stroke-linejoin:round;stroke-dasharray:none;stroke-dashoffset:0;stroke-opacity:1;paint-order:fill markers stroke"
         id="rect15"
         width="128.20403"
         height="96"
         x="1.8254761"
         y="18.205252"
         ry="0"
         clip-path="url(#clipPath1543)"
         transform="matrix(-0.98517017,0,0,0.99194317,170.11506,82.697869)" />
      <rect
         style="fill:#ffffff;fill-opacity:0;stroke:#000000;stroke-width:0.75;stroke-linecap:round;stroke-linejoin:round;stroke-dasharray:none;stroke-dashoffset:0;stroke-opacity:1;paint-order:fill markers stroke"
         id="rect17"
         width="52.194962"
         height="91.296188"
         x="75.511932"
         y="20.586502"
         ry="0"
         clip-path="url(#clipPath1546)"
         transform="matrix(-0.98517017,0,0,0.99194317,170.11506,82.697869)" />
      <rect
         style="fill:#ffffff;fill-opacity:0;stroke:#000000;stroke-width:0.741412;stroke-linecap:round;stroke-linejoin:round;stroke-dasharray:none;stroke-dashoffset:0;stroke-opacity:1;paint-order:fill markers stroke"
         id="rect18"
         width="68.754791"
         height="90.560623"
         x="-166.2314"
         y="103.11851"
         ry="0"
         transform="scale(-1,1)" />
    </g>
  </g>
</svg>
